<?xml version="1.0" encoding="UTF-8"?>
<svg id="Layer_2" data-name="Layer 2" xmlns="http://www.w3.org/2000/svg" xmlns:xlink="http://www.w3.org/1999/xlink" viewBox="0 0 512 497.14">
  <defs>
    <style>
      .cls-1 {
        fill: url(#linear-gradient);
      }

      .cls-1, .cls-2, .cls-3, .cls-4, .cls-5, .cls-6, .cls-7 {
        stroke-width: 0px;
      }

      .cls-2 {
        fill: url(#linear-gradient-6);
      }

      .cls-3 {
        fill: url(#linear-gradient-5);
      }

      .cls-4 {
        fill: url(#linear-gradient-2);
      }

      .cls-5 {
        fill: url(#linear-gradient-7);
      }

      .cls-6 {
        fill: url(#linear-gradient-3);
      }

      .cls-7 {
        fill: url(#linear-gradient-4);
      }
    </style>
    <linearGradient id="linear-gradient" x1="187.4" y1="94.09" x2="359.55" y2="193.52" gradientUnits="userSpaceOnUse">
      <stop offset="0" stop-color="#3d3d3b"/>
      <stop offset="1" stop-color="#000100"/>
    </linearGradient>
    <linearGradient id="linear-gradient-2" x1="2200.03" y1="3118.72" x2="2372.18" y2="3218.15" gradientTransform="translate(4148.69 891.52) rotate(134.22)" xlink:href="#linear-gradient"/>
    <linearGradient id="linear-gradient-3" x1="3359.76" y1="24.81" x2="3813.44" y2="24.81" gradientTransform="translate(1378.79 3594.05) rotate(-111.26)" gradientUnits="userSpaceOnUse">
      <stop offset="0" stop-color="#f2f9fc"/>
      <stop offset="1" stop-color="#1d9fce"/>
    </linearGradient>
    <linearGradient id="linear-gradient-4" x1="3466.06" y1="1.25" x2="3638.2" y2="100.67" gradientTransform="translate(1378.79 3594.05) rotate(-111.26)" xlink:href="#linear-gradient"/>
    <linearGradient id="linear-gradient-5" x1="58.3" y1="157.12" x2="512" y2="157.12" gradientUnits="userSpaceOnUse">
      <stop offset="0" stop-color="#fff"/>
      <stop offset="1" stop-color="#edca6f"/>
    </linearGradient>
    <linearGradient id="linear-gradient-6" x1="2093.73" y1="3142.29" x2="2547.42" y2="3142.29" gradientTransform="translate(4148.69 891.52) rotate(134.22)" gradientUnits="userSpaceOnUse">
      <stop offset="0" stop-color="#dd5244"/>
      <stop offset="1" stop-color="#c01c20"/>
    </linearGradient>
    <linearGradient id="linear-gradient-7" x1="161.48" y1="138.99" x2="333.62" y2="238.41" xlink:href="#linear-gradient"/>
  </defs>
  <g id="Layer_1-2" data-name="Layer 1">
    <g>
      <path class="cls-1" d="m301.97,93.67l-36.46,86.67c42.05,19.19,76.03,52.99,95.38,94.96l114.34-24.88c-23.67-79.77-90.4-140.99-173.26-156.75Z"/>
      <path class="cls-4" d="m140.73,335.1l-61.92,99.3c85.84,45.07,194.41,30.72,265.47-42.3,59.7-61.35,77.3-148.01,53.33-224.32-3.28,43.57-21.26,86.26-54.11,120-54.25,55.74-133.95,71.66-202.77,47.32Z"/>
      <g>
        <path class="cls-6" d="m47.75,290.46C10.8,195.5,42.81,90.76,119.44,31.37L98.66,0C12.7,62.64-23.96,177.37,16.4,281.16c36.13,92.88,123.66,150.53,217.4,153.09-1.37-.72-2.75-1.43-4.11-2.17-79.36-9.87-150.92-61.85-181.95-141.62Z"/>
        <path class="cls-7" d="m184.08,128.92L119.44,31.37C42.81,90.76,10.8,195.5,47.75,290.46c31.02,79.76,102.58,131.75,181.95,141.62-38.27-21.07-69.65-55.15-86.72-99.04-28.2-72.5-9.6-151.62,41.11-204.12Z"/>
      </g>
      <path class="cls-3" d="m259.75,89.66c101.89,0,187.9,67.81,215.47,160.75l36.78-8c-27.22-102.81-120.85-178.59-232.22-178.59-99.65,0-185.12,60.68-221.49,147.11,1.17-1.02,2.32-2.05,3.51-3.04,37.96-70.39,112.36-118.23,197.94-118.23Z"/>
      <path class="cls-2" d="m344.29,392.1c-71.06,73.02-179.63,87.37-265.47,42.3l-19.91,31.92c92.66,52.22,212.26,37.95,289.93-41.85,69.5-71.42,85.64-174.98,49.06-261.32-.08,1.54-.15,3.09-.27,4.63,23.97,76.31,6.36,162.97-53.33,224.32Z"/>
      <path class="cls-5" d="m259.75,89.66c-85.58,0-159.98,47.84-197.94,118.23,33.51-28.03,76.64-44.91,123.74-44.91,28.54,0,55.59,6.24,79.96,17.36l36.46-86.67c-13.68-2.6-27.78-4.01-42.22-4.01Z"/>
    </g>
  </g>
</svg>