<?xml version="1.0" encoding="UTF-8"?>
<svg id="Layer_2" data-name="Layer 2" xmlns="http://www.w3.org/2000/svg" viewBox="0 0 479.5 113.45">
  <defs>
    <style>
      .cls-1 {
        fill: #0097da;
      }

      .cls-1, .cls-2, .cls-3, .cls-4, .cls-5, .cls-6, .cls-7, .cls-8, .cls-9, .cls-10, .cls-11, .cls-12, .cls-13, .cls-14, .cls-15, .cls-16, .cls-17, .cls-18, .cls-19, .cls-20, .cls-21, .cls-22, .cls-23, .cls-24, .cls-25, .cls-26, .cls-27, .cls-28, .cls-29 {
        stroke-width: 0px;
      }

      .cls-2 {
        fill: #d2d2d1;
      }

      .cls-3 {
        fill: #e49883;
      }

      .cls-4 {
        fill: #a7a8a8;
      }

      .cls-5 {
        fill: #313332;
      }

      .cls-6 {
        fill: #212120;
      }

      .cls-8 {
        fill: #c6e4f8;
      }

      .cls-9 {
        fill: #aed9f5;
      }

      .cls-10 {
        fill: #f9eac3;
      }

      .cls-11 {
        fill: #cf2720;
      }

      .cls-12 {
        fill: #fdf4df;
      }

      .cls-13 {
        fill: #f3de99;
      }

      .cls-14 {
        fill: #d74f3a;
      }

      .cls-15 {
        fill: #fff;
      }

      .cls-16 {
        fill: #7a7a79;
      }

      .cls-17 {
        fill: #272726;
      }

      .cls-18 {
        fill: #efd57b;
      }

      .cls-19 {
        fill: #4b4a49;
      }

      .cls-20 {
        fill: #6dbfeb;
      }

      .cls-21 {
        fill: #5a5959;
      }

      .cls-22 {
        fill: #d13527;
      }

      .cls-30 {
        fill: #1d1d1b;
        font-family: Poppins-Regular, Poppins;
        font-size: 15px;
      }

      .cls-23 {
        fill: #9a9999;
      }

      .cls-24 {
        fill: #8c8c8b;
      }

      .cls-25 {
        fill: #c6c6c6;
      }

      .cls-26 {
        fill: #373939;
      }

      .cls-27 {
        fill: #44b4e7;
      }

      .cls-28 {
        fill: #babab9;
      }

      .cls-29 {
        fill: #dd6c54;
      }
    </style>
  </defs>
  <g id="Layer_1-2" data-name="Layer 1">
    <path class="cls-6" d="m456.55,18.65c.29.02.58.04.87.07.13.01.27.03.4.04.85.07,1.7.18,2.54.32,1.82.3,3.61.72,5.35,1.36,1.61.59,3.16,1.31,4.61,2.23,1.15.73,2.21,1.57,3.16,2.56,1.86,1.93,3.08,4.21,3.7,6.84.06.25.11.49.16.74.06.29.09.59.11.89,0,.04-.03.09-.03.13,0,.34.02.67.05,1.01.01.14.07.26.1.39v1.38c-.07-.01-.13-.03-.2-.03-.2,0-.4,0-.61,0-16.89,0-33.78,0-50.67,0-.25,0-.49,0-.74.01-.09,0-.18.09-.18.17,0,.02,0,.05,0,.07,0,.09,0,.18,0,.28.03.57.06,1.15.09,1.72-.07.09-.06.18.02.28.01.46.09.92.15,1.37.11.82.28,1.63.5,2.43.24.84.55,1.65.95,2.43.39.76.88,1.45,1.46,2.06.53.56,1.14,1.04,1.81,1.42.77.44,1.58.76,2.45.95.15.03.31.07.46.1.46.09.93.13,1.41.13,3.95,0,7.91,0,11.86,0,.18,0,.36,0,.54,0,.11,0,.19.1.2.23,0,.05,0,.09,0,.14,0,.07,0,.14,0,.21,0,1.15,0,2.3,0,3.45,0,.09,0,.18,0,.28,0,.06-.12.17-.18.18-.04,0-.09,0-.13,0-.13,0-.27,0-.4,0-4.07,0-8.13,0-12.2,0-.25,0-.49-.02-.74-.03-.74-.03-1.48-.13-2.22-.19-.22-.02-.45-.06-.67-.1-.08-.09-.16-.1-.27-.02-1.56-.21-3.1-.52-4.61-.96-1.84-.53-3.61-1.25-5.29-2.19-1.11-.62-2.15-1.33-3.11-2.17-1.46-1.26-2.64-2.75-3.52-4.49-.49-.96-.86-1.97-1.12-3.02-.2-.8-.35-1.61-.44-2.44-.15-1.24-.12-2.48-.09-3.72.06-.64.12-1.28.23-1.92.11-.66.25-1.31.44-1.95.6-2.06,1.59-3.89,2.98-5.5.96-1.11,2.06-2.04,3.27-2.85,1.05-.71,2.17-1.3,3.32-1.81,1.44-.64,2.94-1.14,4.47-1.51.96-.23,1.93-.42,2.91-.58.53-.08,1.07-.15,1.6-.22.6-.08,1.21-.11,1.81-.16.14.1.27.08.4-.02.34-.03.67-.03,1.01-.03,6.9,0,13.8,0,20.7,0,.36,0,.72,0,1.07.03.09.09.17.09.27.02Zm-11.66,13.39c6.09,0,12.17,0,18.26,0,.2,0,.4,0,.61,0,.07,0,.13,0,.2,0,.02,0,.04-.01.06-.01.06,0,.11-.09.11-.15,0-.28-.09-.54-.16-.81-.2-.83-.45-1.64-.78-2.42-.34-.8-.76-1.56-1.28-2.26-.95-1.28-2.17-2.19-3.64-2.74-1.02-.38-2.08-.57-3.17-.57-6.83,0-13.65,0-20.48,0-.13,0-.27,0-.4,0-.09,0-.18,0-.27.01-.49.07-.98.12-1.46.24-.99.25-1.92.63-2.76,1.24-.72.52-1.35,1.13-1.9,1.85-.69.92-1.21,1.93-1.61,3.01-.27.76-.48,1.53-.65,2.32,0,.04,0,.09,0,.14,0,.06.06.13.12.14.22,0,.45.01.67.01,6.18,0,12.35,0,18.53,0Z"/>
    <path class="cls-1" d="m324.96,0c-.01.07,0,.14.03.2.15.23.29.46.44.69.56.86,1.12,1.71,1.68,2.57.06.09.13.19.14.31-.27.2-.55.39-.82.6-1.18.88-2.27,1.88-3.27,2.97-1.32,1.42-2.47,2.97-3.45,4.66-.39.67-.76,1.36-1.08,2.07-.03.06-.06.12-.12.16-.08-.04-.17-.07-.24-.11-.2-.11-.41-.18-.64-.16-.09,0-.19,0-.26-.04-.23-.11-.48-.08-.71-.19-.06-.03-.13-.03-.2-.04-.16,0-.31-.03-.45-.1-.15-.07-.31-.03-.46-.07-.17-.04-.33-.13-.52-.12-.14,0-.26-.05-.38-.1-.14-.07-.27-.16-.43-.18.14-.41.34-.8.53-1.19.52-1.05,1.09-2.06,1.72-3.04.54-.85,1.13-1.66,1.74-2.45.55-.7,1.11-1.38,1.72-2.03.64-.68,1.28-1.35,1.97-1.98.75-.69,1.53-1.35,2.36-1.95.15-.11.29-.22.43-.33.05-.04.09-.1.14-.15.04,0,.09,0,.13,0Z"/>
    <path class="cls-6" d="m87.66,54.41c-.85-.09-1.7-.16-2.54-.29-1.11-.17-2.22-.37-3.31-.64-1.33-.33-2.64-.74-3.91-1.27-1.23-.51-2.42-1.11-3.55-1.83-.84-.54-1.64-1.13-2.38-1.81-1.9-1.73-3.28-3.83-4.09-6.31-.26-.81-.46-1.63-.59-2.48-.17-1.05-.25-2.1-.25-3.16,0-5.73,0-11.46,0-17.19,0-.23,0-.46.01-.69,0-.04.1-.13.14-.13.2,0,.4-.02.61-.02,2.58,0,5.17,0,7.75,0,1.37,0,2.74,0,4.11,0,.13,0,.27,0,.4.02.04,0,.08.05.09.09.02.04.02.09.02.14,0,.25,0,.51,0,.76,0,5.41,0,10.82,0,16.23,0,1.04.02,2.07.1,3.1.03.44.08.87.14,1.3.12.89.29,1.77.53,2.63.28.97.65,1.91,1.15,2.79.44.76.97,1.44,1.6,2.04.67.63,1.42,1.12,2.26,1.49.7.31,1.44.53,2.19.66.13.02.27.04.4.07.16.03.31.04.47.04.16,0,.31,0,.47,0,6.83,0,13.66,0,20.49,0,.22,0,.45.02.67-.02.04,0,.13-.09.13-.14,0-.05.02-.09.02-.14,0-.21,0-.41,0-.62,0-9.83,0-19.66,0-29.48,0-.28.01-.55.02-.83,0-.04.09-.12.14-.13.2,0,.4-.01.61-.01,2.81,0,5.62,0,8.43,0,1.17,0,2.34,0,3.51,0,.11,0,.23,0,.33.03.04.01.07.06.09.1.02.04.02.09.02.13,0,.23,0,.46,0,.69,0,11.6,0,23.2,0,34.8,0,.28,0,.55,0,.83-.04,1.06-.15,2.11-.36,3.15-.23,1.18-.59,2.31-1.08,3.4-.51,1.14-1.16,2.18-1.94,3.14-1.03,1.27-2.24,2.32-3.59,3.22-1.19.8-2.45,1.45-3.76,2-1.33.56-2.7,1-4.1,1.33-1.13.27-1.83.4-2.98.57-.73.11-1.47.22-2.21.27-.38.03-.76.07-1.14.11-.07-.06-.15-.04-.23-.03-.02,0-.03.03-.04.04-.54.03-1.08.03-1.62.03-3.7,0-7.41,0-11.11,0-.2,0-.4,0-.61,0-.15,0-.26-.05-.26-.24,0-.14,0-.28,0-.41,0-.57,0-1.15,0-1.72,0-.6,0-1.2,0-1.79,0-.07,0-.14.03-.2.01-.04.05-.07.09-.09.04-.02.09-.03.13-.03.2,0,.4,0,.61,0,3.84,0,7.68,0,11.52,0,.86,0,1.14-.02,2.13-.25.73-.16,1.42-.42,2.08-.77,1.1-.57,2.02-1.36,2.77-2.36.52-.7.93-1.46,1.26-2.27.35-.85.6-1.73.79-2.63.13-.65.23-1.31.31-1.97.09-.8.13-1.6.15-2.41,0-.18.01-.37.02-.55,0-.1-.11-.21-.22-.21-.25,0-.49,0-.74,0-6.6,0-13.2,0-19.8,0-.7,0-1.39,0-2.09-.06-.09-.07-.16-.07-.27-.01Z"/>
    <path class="cls-6" d="m162.22,18.67c.49.04.98.08,1.48.14.54.06,1.07.14,1.6.21.33.05.67.1,1,.15,1.06.18,2.11.41,3.16.69,1.59.42,3.13.99,4.62,1.69,1.04.49,2.04,1.06,3,1.71.62.42,1.21.88,1.76,1.38,1.35,1.21,2.46,2.61,3.3,4.23.47.92.84,1.88,1.11,2.88.2.75.35,1.52.45,2.3.07.59.1,1.19.13,1.79.03.53.03,1.06.03,1.59,0,5.38,0,10.76,0,16.14,0,.25-.01.51-.02.76,0,.05-.09.14-.13.14-.04,0-.09.01-.13.01-.18,0-.36,0-.54,0-3.84,0-7.68,0-11.52,0-.18,0-.36,0-.54,0-.04,0-.09-.02-.13-.04-.01-.07-.05-.12-.12-.15,0-.07-.03-.14-.03-.2,0-.23,0-.46,0-.69,0-5.63,0-11.27,0-16.9,0-.97-.07-1.93-.16-2.89-.04-.46-.11-.91-.2-1.36.06-.12.03-.23-.05-.32-.08-.33-.16-.67-.24-1-.17-.69-.4-1.36-.69-2.02-.43-.99-.99-1.91-1.72-2.71-.61-.68-1.32-1.25-2.11-1.7-.79-.45-1.62-.78-2.5-1.01-.65-.17-1.32-.26-1.99-.36-.09-.01-.18-.01-.27-.01-.13,0-.27,0-.4,0-6.49,0-12.99,0-19.48,0-.22,0-.45-.02-.67.02-.04,0-.08.05-.1.09-.02.04-.03.09-.03.13,0,.23,0,.46,0,.69,0,9.85,0,19.7,0,29.55,0,.25.02.51-.02.76,0,.04-.05.08-.08.1-.04.02-.08.03-.13.04-.11,0-.22,0-.34,0-4.02,0-8.04,0-12.07,0-.11,0-.22,0-.34,0-.06,0-.18-.12-.19-.17,0-.05,0-.09,0-.14,0-.18,0-.37,0-.55,0-11.37,0-22.74,0-34.11,0-.23,0-.46,0-.69,0-.08.09-.18.17-.18.04,0,.09-.01.13-.01.13,0,.27,0,.4,0,10.96,0,21.93,0,32.89,0,.43,0,.85.02,1.28.03.11.09.23.08.35.06.02,0,.03-.02.05-.03Z"/>
    <path class="cls-6" d="m186.63,33.97c.12-.84.27-1.68.5-2.5.58-2.09,1.56-3.96,2.96-5.59.79-.92,1.67-1.73,2.64-2.45,1.15-.85,2.39-1.56,3.68-2.15,1.58-.73,3.22-1.28,4.91-1.69,1.07-.26,2.15-.46,3.24-.62.56-.08,1.11-.16,1.67-.2.22-.01.45-.05.67-.07.69-.06,1.39-.1,2.09-.1,6.87,0,13.75,0,20.62,0,.83,0,1.66.05,2.49.13.54.05,1.07.12,1.61.18.36.04.71.09,1.07.15,1.42.24,2.82.54,4.2.97,1.59.49,3.13,1.12,4.61,1.92,1.07.58,2.09,1.25,3.04,2.04.79.65,1.51,1.37,2.16,2.17,1.15,1.42,2,3,2.55,4.75.26.83.46,1.68.59,2.55.11.73.18,1.46.22,2.2.01.23,0,.46,0,.69,0,.12-.1.2-.22.21-.07,0-.13,0-.2,0-.18,0-.36,0-.54,0-5.98,0-11.95,0-17.93,0-10.92,0-21.83,0-32.75,0-.25,0-.49-.02-.74.02-.04,0-.06.06-.1.09,0,.23-.02.46-.01.69.02.53.05,1.06.07,1.59,0,.16.03.32.05.48.02.16.03.32.05.48-.07.1-.06.19.03.28.08.5.15,1,.25,1.49.22,1.06.53,2.09.97,3.08.33.73.74,1.42,1.24,2.05.96,1.21,2.16,2.06,3.59,2.59.72.27,1.47.43,2.22.54.11.02.22.02.34.02.18,0,.36,0,.54,0,3.95,0,7.9,0,11.86,0,.18,0,.36-.03.54.03.04.01.07.05.1.09.01.02.02.04.02.06,0,.09.01.18.01.28,0,1.2,0,2.39,0,3.59,0,.09,0,.18,0,.28,0,.07-.11.17-.18.17-.04,0-.09,0-.13,0-.16,0-.31,0-.47,0-4.02,0-8.04,0-12.06,0-.43,0-.85-.04-1.28-.06-.09-.07-.16-.07-.27-.01-.84-.09-1.68-.17-2.51-.29-.2-.03-.39-.07-.59-.1-.07-.08-.13-.1-.22-.08-.02,0-.03.03-.05.04-1.66-.27-3.3-.66-4.89-1.2-1.47-.5-2.89-1.13-4.24-1.9-1.16-.66-2.24-1.43-3.23-2.34-1.86-1.7-3.21-3.75-4.02-6.17-.28-.85-.5-1.71-.63-2.6-.03-.23-.07-.45-.1-.68.07-.1.06-.19-.03-.28-.01-.14-.02-.27-.04-.41-.11-1-.11-2-.06-3,.02-.39.06-.77.1-1.15.08-.09.09-.18.03-.28Zm21.19-10.79c-.13-.06-.24-.05-.35.05-.51.09-1.01.23-1.5.4-1.23.45-2.27,1.2-3.16,2.16-.53.57-.97,1.21-1.34,1.89-.71,1.32-1.19,2.72-1.45,4.21,0,.06.06.13.12.14.25,0,.49.01.74.01,12.28,0,24.57,0,36.85,0,.18,0,.36,0,.54,0,.07,0,.13,0,.2-.01.06,0,.13-.08.12-.13-.03-.34-.12-.68-.21-1.01-.23-.91-.53-1.8-.93-2.66-.36-.77-.8-1.49-1.33-2.15-.81-.99-1.79-1.73-2.94-2.25-.93-.42-2.49-.76-3.6-.75-6.83,0-13.65,0-20.48,0-.43,0-.85.02-1.27.1Z"/>
    <path class="cls-6" d="m.07,38.34c-.04-.18-.04-.36-.04-.54,0-1,0-2.01,0-3.01,0-.09,0-.18-.02-.27.04-.32.09-.64.13-.96.09-.09.1-.18.04-.28.11-.56.22-1.13.37-1.68.65-2.42,1.82-4.53,3.54-6.33.96-1.01,2.04-1.86,3.21-2.61,1.22-.78,2.52-1.41,3.86-1.94,1.38-.55,2.8-.97,4.25-1.29.86-.19,1.72-.34,2.58-.47.55-.08,1.11-.16,1.67-.2.47-.04.94-.11,1.41-.12.11.08.18.07.27-.01.36-.03.72-.03,1.08-.03,8.29,0,16.58,0,24.87,0,.2,0,.4,0,.61,0,.09,0,.18.08.19.16,0,.07.01.14.01.21,0,1.27,0,2.53,0,3.8,0,.07,0,.14-.02.2-.01.04-.06.07-.09.09-.04.02-.09.02-.13.02-.25,0-.49,0-.74,0-8.07,0-16.13,0-24.2,0-.13,0-.27,0-.4,0-.36,0-.72.02-1.07.08-.47.07-.93.18-1.38.32-.54.16-1.06.38-1.56.63-.8.4-1.48.96-2.09,1.6-.67.69-1.21,1.48-1.64,2.35-.35.7-.64,1.42-.86,2.17-.32,1.06-.54,2.14-.66,3.24,0,.07,0,.14,0,.21,0,.04.08.14.12.14.07,0,.13,0,.2,0,.25,0,.49,0,.74,0,16.81,0,33.61,0,50.42,0,.25,0,.49,0,.74.02.03,0,.08.05.1.09.02.06.03.13.03.2,0,.53,0,1.06,0,1.59,0,.58,0,1.15-.01,1.73-.01.81-.11,1.6-.24,2.4-.13.82-.32,1.62-.58,2.41-.64,1.97-1.65,3.72-3.03,5.25-.9,1-1.93,1.86-3.04,2.61-1.24.84-2.57,1.51-3.94,2.08-1.44.6-2.92,1.05-4.44,1.39-.92.21-1.85.38-2.78.51-.56.08-1.11.15-1.67.2-.54.05-1.07.1-1.61.13-.25.02-.49.03-.74.03-8.45,0-16.9,0-25.34,0-.18,0-.36-.01-.54-.02-.08,0-.16-.1-.16-.19,0-.05,0-.09,0-.14,0-1.27,0-2.53,0-3.8,0-.07,0-.14.01-.21,0-.04.09-.13.14-.13.07,0,.13-.02.2-.02.2,0,.4,0,.61,0,8.25,0,16.49,0,24.74,0,.07,0,.13,0,.2,0,.36,0,.72-.03,1.07-.09.58-.1,1.14-.25,1.69-.44.36-.13.71-.29,1.05-.46.54-.28,1.04-.64,1.5-1.05.71-.64,1.31-1.38,1.81-2.21.45-.75.8-1.54,1.08-2.37.33-.98.55-1.99.7-3.01.09-.59.15-1.19.18-1.78,0-.09-.08-.17-.16-.18-.04,0-.09,0-.13,0-.09,0-.18,0-.27,0-.2,0-.4,0-.61,0-16.76,0-33.52,0-50.28,0-.29,0-.58,0-.88,0Z"/>
    <path class="cls-6" d="m268.19,34.25c-.05.5-.08,1.01-.09,1.51,0,.16,0,.32-.01.48,0,.11-.01.23,0,.34.02.94.05,1.89.14,2.82.12,1.19.31,2.37.65,3.52.25.84.55,1.65.96,2.42.26.48.55.95.89,1.38.87,1.12,1.96,1.95,3.25,2.5.66.29,1.36.48,2.07.61.13.02.27.04.4.07.18.03.36.05.54.05.2,0,.4,0,.61,0,9.62,0,19.23,0,28.85,0,.22,0,.45,0,.67,0,.07,0,.13.02.2.03.02.07.06.11.13.13.04.11.04.22.04.34,0,.86,0,1.72,0,2.59,0,.32,0,.64,0,.95,0,.09,0,.18-.03.27-.07.03-.11.08-.13.15-.07.01-.13.04-.2.04-.18,0-.36,0-.54,0-9.81,0-19.62,0-29.44,0-.72,0-1.44-.05-2.15-.13-.13-.02-.27-.03-.4-.04-.65-.06-1.29-.15-1.94-.25-.6-.09-1.2-.2-1.79-.32-2.3-.46-4.52-1.19-6.63-2.24-1.01-.5-1.98-1.08-2.9-1.75-1.14-.83-2.17-1.78-3.06-2.89-1.07-1.33-1.87-2.81-2.42-4.43-.27-.8-.48-1.63-.62-2.47-.17-1.02-.27-2.05-.27-3.09,0-.51.01-1.01.02-1.52,0-.14,0-.28,0-.41.07-.09.07-.19.02-.3.05-.18.06-.36.08-.54.08-.78.23-1.55.42-2.3.62-2.41,1.74-4.52,3.42-6.33.9-.97,1.91-1.81,3-2.55,1.02-.68,2.09-1.25,3.2-1.75,1.69-.76,3.45-1.32,5.25-1.71.88-.19,1.76-.35,2.65-.48.62-.09,1.25-.17,1.87-.22.58-.05,1.16-.11,1.75-.13.22,0,.45-.02.67-.02,9.8,0,19.59,0,29.39,0,.16,0,.31,0,.47,0,.18,0,.26.07.26.23,0,.07,0,.14,0,.21,0,1.2,0,2.39,0,3.59,0,.11,0,.23-.02.34,0,.04-.06.08-.1.09-.06.02-.13.02-.2.02-.25,0-.49,0-.74,0-9.51,0-19.01,0-28.52,0-.09,0-.18,0-.27,0-.67-.03-1.42.09-2.14.26-.64.15-1.25.36-1.84.65-1.29.62-2.35,1.52-3.18,2.71-.55.79-.98,1.65-1.31,2.56-.31.86-.53,1.76-.69,2.66-.1.54-.15,1.09-.23,1.64-.02.14-.01.28-.02.41-.07.1-.08.19-.02.28Z"/>
    <path class="cls-17" d="m318.5,14.21c.06-.04.09-.1.12-.16.32-.71.69-1.39,1.08-2.07.98-1.69,2.13-3.24,3.45-4.66,1.01-1.09,2.09-2.08,3.27-2.97.27-.2.55-.4.82-.6.11.05.17.15.23.24.33.5.65.99.98,1.49,1.21,1.85,2.42,3.71,3.64,5.56,0,.1.02.19.03.29-.4.26-.8.52-1.19.78-2.7,1.82-5.07,4.03-7.14,6.57-.96,1.19-1.83,2.44-2.61,3.77-.06.1-.13.19-.15.31-.02.01-.04.02-.05.04-.18.25-.32.52-.43.8-.03.09.04.11.08.14h0q-.13-.06-.19.06s-.02.04-.03.06c-.03.03-.07.06-.09.1-.14.24-.24.49-.34.75-.02.04-.02.09-.03.13-.09.04-.13.12-.14.21,0,.07,0,.14,0,.21h0c-.08,0-.12.07-.15.13-.14.13-.21.3-.24.48-.02.16-.07.31-.12.46-.05.13-.08.26-.11.4-.01.05.01.09.05.11.04.02.09.02.13,0,.04-.03.08-.05.1-.09.1-.19.22-.35.42-.43.22-.19.5-.31.7-.53.04-.05.11-.08.17-.11.07-.05.15-.1.22-.16.13-.13.29-.22.43-.32.15-.11.29-.21.46-.29.08-.04.17-.08.23-.13.19-.17.42-.26.64-.38.1-.05.21-.09.29-.17.19-.16.42-.27.64-.38.16-.08.32-.17.46-.29.12-.1.27-.17.42-.21.2-.05.38-.15.56-.24.28-.14.56-.28.84-.43.3-.16.61-.28.92-.41.21-.09.42-.17.63-.25.21-.08.43-.14.63-.25.1-.06.21-.08.32-.12.32-.11.64-.22.93-.39.14-.08.29-.13.44-.18.1-.03.2-.1.29-.16.03-.02.05-.07.06-.12.03-.07-.05-.21-.11-.22-.04,0-.09-.02-.13-.02-.25.02-.49-.05-.72-.14-.06-.02-.13-.04-.19-.06-.13-.06-.26-.09-.39-.08-.27.02-.53-.04-.79-.14-.04-.02-.09-.02-.13-.04-.15-.07-.3-.1-.46-.09-.16,0-.31-.02-.46-.09-.12-.05-.26-.08-.38-.13-.11-.04-.22-.06-.33-.06-.07,0-.13,0-.2,0-.24,0-.44-.06-.7-.2-.04-.02-.06-.06-.07-.11-.01-.04-.02-.09-.03-.13.03-.07.08-.11.13-.15.29-.22.57-.44.86-.66,1.86-1.37,3.84-2.51,5.94-3.46.98-.44,1.99-.83,3-1.19.11-.04.21-.07.33-.06,0,.02,0,.05.01.07.02.09.05.18.14.22.12.07.24.13.36.19.12.07.25.1.39.09.21,0,.4.03.59.12.08.04.17.05.26.08.13.05.26.08.39.08.27-.02.53.04.79.14.04.02.09.02.13.04.15.07.3.1.46.09.16,0,.31.02.46.08.06.03.13.04.2.05.04,0,.09,0,.13,0,.25-.02.49.03.72.13.04.02.09.02.13.04.19.09.38.13.59.11.21-.01.4.04.59.11.27.1.55.2.85.17.04,0,.09,0,.13.02.18.1.4.08.58.16.17.07.34.1.53.09.11,0,.22.02.33.06.15.06.3.1.45.16.11.04.22.06.33.06.07,0,.13,0,.2,0,.16,0,.31.03.46.09.1.04.22.06.32.11.13.05.26.08.39.08.13,0,.27,0,.4.05.15.07.3.09.46.08.16,0,.31.03.46.1.12.05.25.09.38.13.09.02.18.05.26.05.32-.02.62.06.92.17.04.02.08.03.13.05.1.05.21.06.33.07.09,0,.18,0,.27,0,.11,0,.22.02.33.06.1.04.22.06.32.11.17.08.34.11.52.11.14,0,.27.02.39.07.34.13.68.24,1.05.21.09,0,.18.02.26.05.13.05.26.07.39.08.11,0,.22.02.33.03.18.1.4.08.58.16.17.07.35.09.53.09.11,0,.22.02.33.06.13.05.26.08.38.13.15.06.3.09.46.09.16,0,.31.03.46.09.1.04.22.06.32.11.13.05.26.08.39.07.28-.02.53.04.79.14.06.02.13.04.19.07.11.04.21.06.33.07.09,0,.18,0,.27,0,.11,0,.22.02.33.06.15.06.3.1.45.16.11.04.22.06.33.06.18,0,.36.02.53.09.06.03.13.03.2.04.11,0,.22,0,.34,0,.11,0,.22.02.33.06.13.05.26.08.38.13.13.05.26.08.39.08.18,0,.35.03.53.1.19.07.4.07.58.15.08.03.18.03.27.03.3,0,.42-.04.42-.38,0-.05,0-.09,0-.14.07.02.11.06.16.11.33.33.64.67.98.99v.06s.07.01.07.01v.04s.05.01.05.01c0,.06.02.09.08.09,0,.02.01.04.03.06.23.28.45.58.72.83v.06s.07.02.07.02v.04s.03,0,.03,0c.01.1.08.16.13.23.67.86,1.28,1.76,1.83,2.69.61,1.04,1.15,2.11,1.61,3.22.03.06.03.13.04.2,0,.06.02.1.07.13.06.07.09.16.08.25-.01.04-.02.09-.03.13-.03.1-.13.15-.2.12-.06-.03-.13-.05-.18-.08-.18-.1-.37-.15-.58-.14-.14,0-.26-.03-.39-.08-.3-.1-.59-.23-.91-.2-.04,0-.09,0-.13-.02-.21-.1-.44-.09-.65-.17-.13-.05-.26-.08-.39-.08-.18,0-.36-.02-.52-.1-.06-.03-.13-.03-.2-.04-.11,0-.22,0-.34,0-.11,0-.22-.02-.33-.06-.13-.05-.26-.08-.38-.13-.13-.05-.26-.08-.39-.08-.18,0-.35-.03-.53-.09-.08-.03-.17-.04-.26-.04-.18,0-.36,0-.53.03-.02-.02-.04-.03-.07-.03h0c.03-.13.02-.23-.08-.31l-.05-.25c.03-.12.01-.22-.09-.3-.19-.79-.44-1.56-.72-2.32,0-.05.01-.09,0-.13-.04-.2-.12-.39-.24-.55-.01-.02-.03-.03-.05-.04-.02,0-.04-.02-.05-.01-.02,0-.03.03-.04.05-.05.21.06.4.12.59.01.04.06.06.09.09.02.13.04.27.07.4.11.5.2,1.01.26,1.53-.05.13-.03.27-.01.4,0,.07.04.13.08.18.02.36.04.72.06,1.08,0,.07-.02.13-.03.2,0,.65-.01,1.3-.02,1.95,0,.07.01.13.02.2h-.02c-.03.05-.08.11-.09.17-.04.36-.06.72-.03,1.08,0,.39-.11.76-.14,1.14-.01.16-.05.31-.08.47-.03.16-.06.31-.04.47-.07.12-.11.25-.12.39-.03.23-.08.45-.13.67-.25,1.19-.57,2.35-.94,3.51-.44,1.37-.97,2.71-1.57,4.01-.12.27-.25.54-.41.79-.09,0-.18,0-.26-.03-.13-.04-.25-.09-.39-.11-.24-.04-.47-.14-.71-.17-.16-.09-.34-.1-.52-.1-.14,0-.26-.04-.39-.08-.24-.07-.48-.11-.71-.19-.2,0-.4-.03-.59-.12-.33-.03-.64-.2-.99-.17-.06,0-.13-.02-.19-.04-.23-.1-.49-.08-.71-.2-.04-.02-.09-.02-.13-.02-.22,0-.44-.02-.66-.11-.14-.06-.31-.03-.47-.04-.16-.01-.3-.09-.42-.19-.04-.03-.06-.07-.07-.12-.04-.16-.01-.32-.02-.48.09-.14.23-.22.35-.32.98-.8,1.9-1.68,2.73-2.65.44-.52.86-1.05,1.26-1.61.04-.02.08-.03.11-.06.09-.1.13-.22.12-.36.09-.03.16-.08.21-.16.08-.11.15-.23.22-.34.13-.21.28-.41.4-.64.12-.22.26-.43.39-.64.09-.16.17-.33.25-.49.11-.23.22-.45.37-.65.08-.11.14-.24.18-.37.05-.2.14-.39.23-.57.1-.21.2-.41.3-.62.11-.2.16-.43.25-.64.07-.17.15-.33.21-.51.05-.17.14-.34.21-.51.03-.06.04-.13.06-.2.07-.22.15-.43.22-.65.09-.28.18-.57.26-.85.01-.04,0-.09-.01-.13-.02-.06-.05-.13-.08-.19-.11-.21-.26-.36-.5-.42-.19-.05-.38-.14-.59-.14-.09,0-.18-.03-.26-.06-.11-.04-.21-.07-.33-.07-.16,0-.31-.06-.46-.11-.17-.06-.36,0-.53-.09-.12-.06-.26-.08-.39-.08-.11,0-.22-.02-.33-.07-.1-.05-.22-.06-.33-.07-.11,0-.22-.02-.33-.07-.1-.05-.21-.06-.33-.07-.09,0-.18,0-.26-.04-.17-.07-.34-.1-.52-.11-.07,0-.13-.02-.2-.04-.15-.07-.3-.08-.46-.09-.09,0-.18-.03-.26-.06-.11-.04-.21-.06-.33-.07-.09,0-.18,0-.26-.04-.17-.07-.34-.1-.52-.11-.07,0-.14-.02-.19-.05-.19-.09-.4-.06-.58-.15-.19-.09-.4-.05-.6-.08-.07,0-.13-.03-.19-.05-.13-.06-.26-.07-.39-.07-.11,0-.22-.03-.32-.08-.1-.05-.2-.1-.31-.14-.06-.02-.13-.04-.2-.04-.16,0-.31,0-.47.02-.04-.02-.09-.03-.12-.06-.16-.12-.32-.25-.48-.37-2.37-1.74-4.95-3.01-7.81-3.67-.59-.14-1.19-.23-1.78-.33-.09-.01-.18,0-.27,0-.09-.06-.19-.08-.29-.03-.13-.05-.26-.06-.4-.07-.78-.06-1.57-.08-2.35-.05-.56.02-1.12.06-1.68.12-.42.05-.84.12-1.26.18-.07.01-.13.05-.17.1-.06.07-.12.14-.18.21-1.15,1.48-2.09,3.09-2.85,4.82-.41.92-.74,1.87-.95,2.86-.04.2-.09.4-.16.59-.04,0-.08,0-.13,0-.12.01-.2.09-.21.2,0,.06,0,.13,0,.19,0,.14.08.24.21.29,0,.05.02.09,0,.14-.04.18-.08.36-.12.53-.02,0-.04,0-.07,0-.25.02-.49-.03-.72-.12-.25-.09-.5-.2-.78-.17-.06,0-.14,0-.2-.03-.18-.1-.4-.07-.59-.15-.15-.06-.3-.09-.46-.08-.16,0-.31-.03-.46-.09-.1-.04-.22-.06-.32-.11-.13-.05-.26-.08-.39-.08-.18,0-.36-.03-.52-.1-.1-.05-.22-.06-.32-.11-.11-.04-.21-.06-.33-.07-.09,0-.18,0-.27,0-.11,0-.22-.02-.33-.06-.15-.06-.3-.1-.45-.15-.11-.04-.22-.06-.33-.06-.11,0-.22,0-.34,0-.07,0-.13-.02-.2-.04-.15-.06-.3-.09-.46-.09-.16,0-.31-.02-.46-.09-.08-.04-.18-.04-.26-.08-.17-.08-.34-.12-.52-.11-.23.01-.44-.03-.66-.12-.1-.04-.21-.07-.32-.11-.06-.02-.13-.04-.2-.04-.22,0-.45,0-.66-.11-.06-.03-.13-.03-.2-.03-.16,0-.31,0-.47,0-.02-.24-.05-.48-.07-.73,0-.09-.05-.17-.1-.24,0,0-.01,0-.01,0,0-.07.02-.14.02-.2,0-.11,0-.23.01-.34.09-.01.17-.04.25-.1.11-.1.12-.26,0-.36-.07-.06-.15-.09-.25-.1-.04-.56-.05-1.13-.04-1.69,0-.27.03-.54-.02-.81.01-.27.03-.54.04-.81,0-.09,0-.18-.03-.27h.02c.06-.08.1-.16.11-.25.02-.29.03-.58.05-.87,0-.04-.01-.09-.02-.13,0,0,.02,0,.02,0,.07-.05.09-.12.08-.2,0-.14.02-.27.02-.41,0-.11.03-.23,0-.34v-.03s.06-.06.08-.1c.06-.18.09-.36.05-.56h.04s.04-.03.05-.05c.03-.04.01-.08-.03-.1,0-.04,0-.09,0-.13.07-.33.15-.66.22-.99.06-.06.11-.12.12-.21.02-.1.04-.2.01-.31v-.03c.14-.1.15-.24.12-.39.15-.53.32-1.05.5-1.57.2-.56.42-1.11.66-1.65.04-.08.06-.17.07-.26Z"/>
    <path class="cls-6" d="m376.93,44.36c0-2.44,0-4.88,0-7.32,0-.69.02-1.38.07-2.07.09-1.45.36-2.87.82-4.25.7-2.1,1.81-3.94,3.34-5.52.95-.99,2.02-1.83,3.17-2.55,1.21-.76,2.48-1.39,3.8-1.91,1.38-.55,2.8-.97,4.25-1.29.86-.19,1.72-.35,2.58-.47.56-.08,1.11-.16,1.67-.2.13,0,.27-.02.4-.04.78-.09,1.57-.13,2.35-.13,5.39,0,10.78,0,16.17,0,.2,0,.4,0,.6.02.08,0,.16.1.17.18,0,.02,0,.05,0,.07,0,1.33,0,2.67,0,4,0,.11-.1.21-.22.21-.07,0-.13,0-.2,0-.18,0-.36,0-.54,0-5.21,0-10.42,0-15.63,0-.2,0-.4,0-.61,0-.07,0-.14,0-.2,0-1.19.14-2.34.41-3.43.95-.86.43-1.62.99-2.28,1.69-.41.43-.76.91-1.08,1.41-.48.78-.85,1.62-1.14,2.49-.25.77-.44,1.54-.57,2.34-.11.7-.2,1.41-.27,2.12-.08.92-.1,1.84-.1,2.76,0,5.57,0,11.14,0,16.7,0,.25,0,.51-.01.76,0,.04-.1.13-.14.13-.07,0-.13.02-.2.02-.16,0-.31,0-.47,0-3.84,0-7.68,0-11.52,0-.2,0-.4,0-.61,0-.08,0-.18-.09-.19-.17,0-.07-.02-.14-.02-.2,0-.23,0-.46,0-.69,0-3.01,0-6.03,0-9.04Z"/>
    <path class="cls-26" d="m320.79,55.77c-.04-.11-.04-.22.03-.33.04-.06.07-.12.1-.18.5-.84,1-1.68,1.49-2.52.51-.86,1.02-1.72,1.53-2.58.05-.08.09-.16.11-.25.02,0,.04-.02.06-.02.06-.02.13-.05.19-.01.1.06.19.12.29.18,2.74,1.78,5.67,3.12,8.79,4.01.95.27,1.91.48,2.88.65.44.08.89.12,1.33.18.06.02.12.06.18.06.28.03.57.02.85.08.1.05.21.07.33.07.29,0,.58,0,.87-.01.06,0,.09-.03.07-.07,0-.02-.02-.05-.04-.05-.38-.14-.38-.15-.71-.15-.16,0-.31,0-.47.01-.24,0-.46-.06-.69-.12-.12-.03-.25-.06-.38-.03-.15-.04-.3-.09-.45-.13-.5-.13-.99-.3-1.47-.48-1.22-.46-2.39-1.04-3.52-1.7-2.31-1.36-4.39-3.02-6.29-4.91-.55-.54-1.08-1.11-1.59-1.69-.07-.08-.14-.18-.25-.23-.02-.04-.03-.09-.06-.12-.1-.12-.2-.25-.3-.37-.61-.73-1.19-1.49-1.73-2.27-.06-.09-.14-.18-.16-.3.02-.04.05-.08.08-.11.05-.05.1-.1.17-.1.42-.02.85-.09,1.26.08.06.02.13.03.2.03.14,0,.27.03.39.08.21.08.44.07.65.17.04.02.09.02.13.02.23,0,.44.03.66.11.14.06.31.04.46.11.17.08.35.05.53.06.04,0,.09,0,.13.02.2.11.44.08.65.18.1.05.21.06.33.07.09,0,.18,0,.26.04.17.07.36.07.52.13.19.08.39.1.59.1.11,0,.22.02.32.08.1.05.2.11.3.15.24.1.41.28.56.48.13.18.26.38.36.58.14.29.33.55.5.82.17.27.34.54.59.75.08.07.16.16.21.26.09.17.21.3.33.43.08.08.16.17.21.27.08.17.21.3.33.43.08.08.16.17.21.27.08.14.18.27.29.38.7.72,1.4,1.43,2.1,2.15.13.13.28.23.43.33.17.12.33.24.52.32.19.08.33.24.51.33.1.05.18.14.26.21.05.04.1.1.16.13.16.09.3.2.43.33.03.03.07.06.11.08.28.15.54.33.87.35.21.09.44.09.65.18.19.08.4.06.59.15.19.09.4.06.6.08.04,0,.09,0,.13.03.18.11.4.07.58.15.15.06.3.09.46.09.14,0,.27.01.4.07.21.09.45.06.65.18.11.01.22.02.33.04.07,0,.13.02.19.05.13.05.26.08.39.08.11,0,.22.02.33.07.1.05.22.06.33.07.09,0,.19,0,.26.05.21.1.44.08.65.17.21.1.44.04.67.07.07,0,.13.02.2.05.11.04.21.08.33.08.16,0,.31.03.46.1.15.06.31.05.46.1.3.1.59.23.86.38-.06.1-.16.16-.25.23-.47.31-.95.6-1.44.89-1.07.63-2.19,1.17-3.33,1.64-.75.31-1.51.58-2.29.8-.07,0-.13,0-.2,0-.09,0-.16.05-.22.13h0c-.09,0-.18,0-.26,0-.12,0-.21.05-.29.13-.34.13-.71.16-1.05.26-.04.01-.08,0-.13.01-.15,0-.31.01-.46.02-.09,0-.17.05-.23.12,0,0,0,.04,0,.04-.04-.02-.08-.02-.13-.02-.2,0-.39,0-.59.02-.09,0-.16.05-.23.11h0c-.37,0-.75.02-1.12.03-.09,0-.17.05-.23.11h0c-1.17,0-2.34,0-3.5,0h0c-.07-.06-.14-.11-.24-.11-.38-.01-.76-.02-1.13-.03-.18,0-.35-.01-.52-.06-.13-.03-.26-.05-.39-.08-.08-.08-.17-.12-.28-.12-.14,0-.29,0-.43-.01-.03,0-.07,0-.1-.01-.08-.08-.18-.12-.3-.12-.09,0-.18,0-.26,0h.01c-.06-.07-.13-.12-.23-.12-.11,0-.22,0-.33-.01-.49-.1-.97-.24-1.44-.41-.08-.1-.19-.14-.32-.14-.04,0-.08,0-.12,0h0c-.07-.09-.18-.13-.29-.14-.04,0-.09,0-.13,0-.04,0-.09-.01-.13-.03-.46-.18-.92-.36-1.38-.55-.47-.21-.95-.42-1.41-.66-.52-.28-1.04-.54-1.53-.88-.08-.05-.16-.09-.24-.11Z"/>
    <path class="cls-11" d="m320.79,55.77c.09.02.17.06.24.11.49.33,1.01.6,1.53.88.46.24.93.46,1.41.66.45.2.92.37,1.38.55.04.02.09.02.13.03.11.14.27.15.43.14,0,0,0,0,0,0,.07.08.15.13.26.14.06,0,.12,0,.18,0,.47.17.95.31,1.44.41.08.09.18.13.3.13.09,0,.18,0,.27,0,0,0-.01,0-.01,0,.08.08.18.12.3.13.09,0,.17,0,.26,0,.03.01.07.01.1.01.06.06.13.1.22.11.16.02.33.04.49.02.13.03.26.05.39.08.17.04.35.06.52.06.07.06.15.1.24.11.38.03.75.06,1.13.03,0,0,0,0,0,0,.06.03.12.07.18.08.11.02.22.03.33.03.8.02,1.61.03,2.41,0,.13,0,.27-.01.4-.03.06,0,.12-.05.18-.08,0,0,0,0,0,0,.37.03.75,0,1.12-.03.09,0,.17-.05.24-.11,0,0,0,0,0,0,.15,0,.3,0,.45,0,.11,0,.21,0,.32,0,.08,0,.14-.02.18-.1v-.04c.13,0,.26,0,.4-.01.11,0,.21-.05.3-.13.04,0,.09,0,.13-.01.35-.1.71-.13,1.06-.26.09,0,.18,0,.26,0,.11,0,.21-.05.29-.13h0c.13,0,.26-.02.39-.03.05.13.14.23.26.3.16.08.32.17.51.16.11,0,.22.02.33.07.21.09.44.07.65.17.06.03.13.03.2.03.2,0,.4,0,.59.11.31.02.6.19.92.19.06,0,.13.02.19.05.16.08.36.05.52.13.19.09.39.08.59.09.04,0,.09,0,.13.02.19.08.39.1.59.13.13.01.26.08.39.11.13.03.27.03.4.05.04,0,.08.03.13.05.09.02.17.04.26.05.09.01.18,0,.27.01.21.02.38.11.54.25.05.04.09.1.1.17,0,.05.02.09.02.14-.04.06-.09.1-.15.13-.98.51-1.98.97-3,1.38-1.36.54-2.75.98-4.17,1.31-.61.14-1.23.26-1.85.36-.53.09-1.07.13-1.6.22-.15.02-.31.03-.47.04-.18.01-.36.02-.54.04-.83.09-1.66.08-2.49.08-.79,0-1.57-.1-2.35-.14-2.28-.24-4.52-.7-6.7-1.43-1.65-.54-3.24-1.21-4.78-2.01-.48-.25-.95-.52-1.41-.8-.06-.04-.11-.08-.16-.12-.06-.04-.09-.13-.06-.18.04-.08.08-.16.13-.24.71-1.17,1.41-2.35,2.12-3.52.04-.06.08-.11.14-.13Z"/>
    <path class="cls-12" d="m335.33,13.78c-.11-.01-.22.02-.33.06-1.01.36-2.02.75-3,1.19-2.09.95-4.08,2.09-5.94,3.46-.29.21-.57.44-.86.66-.05.04-.1.09-.13.15-.06.03-.13.05-.18.09-1.26,1.03-2.43,2.16-3.45,3.43-.08.11-.18.2-.27.3-.06-.11-.11-.23-.14-.36.02-.12.09-.21.15-.31.78-1.32,1.65-2.58,2.61-3.77,2.07-2.55,4.44-4.75,7.14-6.57.39-.27.79-.52,1.19-.78.09,0,.13-.07.14-.15.09,0,.18-.03.25-.09.12-.11.26-.18.4-.25.66-.34,1.32-.68,1.98-1.02.12-.06.24-.13.37-.16.09-.02.17-.06.25-.1.28-.13.56-.3.86-.37.38-.21.8-.3,1.19-.46.27-.1.55-.18.83-.28.17-.06.34-.13.51-.15.18-.03.34-.12.52-.14.18-.02.34-.1.52-.14.15-.03.31-.06.46-.12.08-.03.18-.03.26-.04.09-.01.18-.02.26-.05.15-.06.3-.09.46-.09.16,0,.31-.02.46-.09.11-.05.22-.05.33-.05.22,0,.45,0,.66-.1.08-.03.18-.03.26-.04.16,0,.31,0,.47,0,.14,0,.27-.02.39-.07.1-.04.22-.06.33-.06.04,0,.09,0,.13,0,1.12,0,2.24,0,3.36,0,.18,0,.36.02.53.08.08.03.17.04.26.05.13,0,.27,0,.4,0,.09,0,.19,0,.26.04.21.09.44.1.66.1.14,0,.27.02.39.07.1.05.22.05.33.06.09,0,.18.01.26.05.17.07.35.09.53.09.11,0,.23.01.33.06.15.07.31.06.46.11.13.04.25.1.39.11.04,0,.09,0,.13.02.22.12.48.1.71.2.1.04.22.04.33.07.07.02.12.06.16.12,0,.17-.07.32-.23.39-.46.21-.4.19-.85.65-.02.02-.03.03-.05.05-.12.13-.26.24-.42.34-.15.09-.3.2-.44.3-.16.12-.29.28-.44.42-.07.06-.13.13-.21.17-.14.08-.26.17-.37.29-.12.13-.26.25-.42.34-.06.03-.11.08-.16.12-.11.11-.23.21-.37.29-.12.07-.22.16-.33.24-.11.07-.14.17-.15.29-.09,0-.17.01-.26,0-.32-.04-.64-.09-.96-.13-.08-.09-.16-.1-.27-.02-.16-.01-.31-.02-.47-.04-.38-.05-.76-.07-1.14-.08-.78-.03-1.57-.03-2.35-.01-.51.01-1.03.03-1.54.1-.09.01-.18.02-.27.02-.56.03-1.11.11-1.67.2-.64.1-1.28.21-1.91.35-1.09.24-2.17.54-3.24.88-.04.01-.07.05-.11.08Z"/>
    <path class="cls-27" d="m317.01,18.63c-.07.33-.15.66-.22.99,0,.04,0,.09,0,.13-.02,0-.03.07-.02.14,0,0-.04.01-.04.01-.03.05-.08.1-.09.16-.03.16-.07.33-.03.5,0,0,0,.03,0,.03-.02.04-.06.07-.07.11-.06.22-.1.45-.05.68,0,.05.01.11.02.16,0,0-.02,0-.02,0-.03.06-.07.12-.08.18-.06.31-.08.62-.08.93,0,.04.02.09.02.13,0,0-.02.01-.02.01-.02.04-.06.08-.06.12-.05.32-.08.64-.03.96-.05.31-.03.63-.04.95-.01.52,0,1.04.04,1.56-.05.33-.02.66.03.98,0,.04.04.08.06.11h.01c-.03.11-.03.21-.02.32.01.22.05.43.02.65-.11,0-.23,0-.33-.04-.17-.08-.35-.07-.52-.13-.19-.08-.39-.09-.59-.12-.04,0-.09-.02-.13-.03-.15-.07-.3-.08-.46-.09-.09,0-.18-.03-.26-.06-.11-.04-.21-.06-.33-.07-.09,0-.18,0-.26-.04-.17-.07-.34-.1-.52-.11-.09,0-.18-.03-.26-.07-.15-.07-.31-.05-.46-.07-.18-.03-.33-.14-.52-.13-.02,0-.04,0-.07,0-.01-.18-.02-.37-.04-.55,0-.09,0-.19-.02-.27-.11-.55-.05-1.1-.06-1.65,0-.05,0-.09.01-.14.09-.41.07-.82.08-1.23.01-.37,0-.73.09-1.1.03-.11.02-.23.03-.34.02-.32.02-.64.12-.95.01-.42.15-.81.18-1.22.1-.49.2-.99.31-1.48.18-.78.39-1.55.64-2.32.22-.68.44-1.35.71-2,.12-.27.23-.55.34-.82.04-.11.09-.21.18-.29.16.02.29.11.43.18.12.06.25.11.38.1.18,0,.35.08.52.12.15.04.31,0,.46.07.15.06.3.09.45.1.07,0,.14,0,.2.04.22.11.48.09.71.19.08.04.17.04.26.04.23-.01.44.06.64.16.08.04.16.07.24.11,0,.09-.03.18-.07.26-.24.54-.47,1.09-.66,1.65-.18.52-.36,1.04-.5,1.57-.12.11-.15.24-.12.39,0,0,0,.03,0,.03-.14.15-.16.32-.13.51Z"/>
    <path class="cls-20" d="m311.62,27.48s.04,0,.07,0c.19-.02.34.1.52.13.15.02.31,0,.46.07.08.04.17.07.26.07.18,0,.35.04.52.11.08.03.18.03.26.04.11,0,.22.03.33.07.08.03.17.05.26.06.16.01.31.03.46.09.04.02.09.03.13.03.2.02.4.04.59.12.16.07.35.05.52.13.1.05.22.04.33.04.01.06.03.12.04.18.02.08.04.16.1.22h0c-.05.26,0,.49.06.73.01.04.04.08.06.11h0c-.02.28,0,.52.07.71.01.04.04.07.07.11.02.13.05.26.07.39.02.11.04.21.06.32-.03.11,0,.21,0,.32.01.09.05.16.12.22,0,.04.01.09.02.13.26,1.07.58,2.13.94,3.17-.03.12.01.22.11.3.01.04.02.07.03.11-.03.13.02.22.12.29.08.21.17.42.25.63.41,1.01.87,1.99,1.38,2.95.16.3.33.59.49.89.03.06.04.13.06.19-.02.01-.04.02-.06.03-.2.13-.41.17-.63.07-.23-.1-.48-.1-.71-.19-.08-.03-.18-.01-.26-.03-.09-.01-.17-.03-.26-.07-.11-.04-.21-.06-.33-.07-.14,0-.26-.03-.39-.08-.04-.02-.08-.03-.13-.04-.15-.01-.31-.02-.46-.04-.15-.02-.29-.12-.45-.12-.16,0-.31-.03-.45-.09-.13-.05-.26-.03-.39-.06-.15-.03-.3-.1-.45-.12-.15-.02-.31,0-.47,0-.09-.07-.16-.16-.22-.26-.1-.2-.2-.41-.31-.61-.37-.74-.72-1.48-.98-2.26-.29-.65-.49-1.33-.69-2.01-.16-.53-.3-1.06-.43-1.59-.05-.22-.06-.45-.14-.67-.07-.19-.08-.4-.14-.6-.05-.17-.05-.36-.07-.54-.13-.37-.09-.77-.2-1.15-.03-.09-.02-.18-.03-.27-.02-.32-.02-.64-.11-.96-.04-.41-.07-.82-.03-1.24Z"/>
    <path class="cls-22" d="m348.15,60.78s-.02-.09-.02-.14c-.01-.07-.05-.13-.1-.17-.16-.13-.33-.23-.54-.25-.09,0-.18,0-.27-.01-.09-.01-.17-.03-.26-.05-.04-.01-.08-.04-.13-.05-.13-.02-.27-.02-.4-.05-.13-.03-.26-.09-.39-.11-.2-.02-.4-.04-.59-.13-.04-.02-.09-.02-.13-.02-.2-.01-.4,0-.59-.09-.16-.08-.35-.05-.52-.13-.06-.03-.13-.05-.19-.05-.32,0-.6-.16-.92-.19-.18-.1-.39-.1-.59-.11-.07,0-.14,0-.2-.03-.2-.11-.44-.08-.65-.17-.1-.05-.21-.07-.33-.07-.19,0-.35-.07-.51-.16-.12-.07-.21-.17-.26-.3,0-.04.01-.07.02-.11.78-.22,1.54-.49,2.29-.8,1.15-.48,2.26-1.01,3.33-1.64.49-.28.97-.58,1.44-.89.09-.06.19-.13.25-.23.04-.01.09-.02.13-.04.36-.23.71-.48,1.04-.74.52-.4,1.03-.79,1.52-1.23.05-.04.12-.07.17-.1.11.01.22.02.33.04.22.11.47.11.71.19.23.08.48.11.71.19.23,0,.44.07.65.13.15.04.3.06.45.12.17.07.35.02.53.05.07.01.13.03.19.05.23.08.48.09.71.19.13,0,.27.01.4.02.07,0,.13.02.19.04.11.03.21.06.31.11.06.03.1.08.14.14.08.11.12.24.13.38-.02.07-.06.12-.1.17-1.01,1.14-2.1,2.2-3.28,3.15-1.39,1.13-2.88,2.11-4.45,2.96-.08.04-.16.08-.25.08Z"/>
    <path class="cls-18" d="m369.32,28.04c-.01-.07-.01-.14-.04-.2-.47-1.11-1-2.19-1.61-3.22-.55-.94-1.16-1.84-1.83-2.69-.05-.07-.12-.14-.13-.23.07,0,.13,0,.2,0,.14,0,.26-.03.37-.13.08-.08.16-.17.25-.22.28-.14.47-.42.76-.55.1-.09.2-.19.29-.28.14-.14.28-.29.47-.38.04-.02.08-.05.11-.08.18-.21.43-.32.64-.49.16-.12.34-.21.55-.23.12.07.2.18.28.29.7.96,1.34,1.96,1.94,2.98.36.71.77,1.4,1.12,2.12.27.57.88,1.95,1.15,2.65.15.39.3.77.42,1.16.17.52.31,1.05.48,1.58.08.26.13.53.19.8.01.05-.03.15-.09.17-.1.04-.21.09-.31.12-.22.06-.44.1-.65.16-.2.05-.39.09-.59.14-.63.15-1.27.31-1.9.47-.46.12-.92.2-1.37.33-.17.05-.35.06-.53.09,0-.03-.02-.06-.04-.09.01-.03.02-.06.02-.1.26-.06.52-.12.78-.19.06-.02.12-.05.19-.07.05-.02.11-.11.11-.16-.01-.09-.01-.18-.03-.27-.15-.6-.3-1.19-.5-1.77-.13-.39-.27-.77-.41-1.16-.02-.07-.06-.12-.12-.16,0-.09-.02-.18-.08-.25.02-.06,0-.11-.07-.13Z"/>
    <path class="cls-29" d="m358.21,42.8c.16-.25.29-.52.41-.79.59-1.31,1.13-2.64,1.57-4.01.37-1.15.69-2.32.94-3.51.05-.22.1-.45.13-.67.02-.14.06-.27.12-.39.06-.07.12-.14.18-.2.05-.05.11-.07.18-.07.04,0,.09,0,.13,0,.15.03.29.12.45.12.16,0,.31,0,.47,0,.11,0,.22,0,.33,0,0,.06.01.13.02.19,0,.09.05.16.13.19v.03s-.02.07-.02.11c-.01.01-.03.02-.04.03-.04.06-.04.08.03.12h0c-.01.09-.03.18-.03.27,0,.3,0,.6,0,.9,0,.39-.01.78-.05,1.17-.03.34-.04.69-.05,1.03-.01.25-.02.51-.07.75-.02.09-.03.18-.04.27-.11,1.29-.35,2.55-.63,3.81-.35,1.55-.82,3.06-1.4,4.53-.3.75-.63,1.48-.98,2.19-.03.06-.07.11-.14.15-.14-.07-.29-.13-.42-.2-.14-.07-.29-.12-.45-.11-.18,0-.35-.02-.52-.1-.1-.05-.21-.06-.32-.1-.13-.05-.26-.07-.39-.07-.09,0-.18,0-.27,0-.09,0-.18-.02-.26-.05-.17-.08-.35-.05-.52-.13-.17-.07-.34-.09-.52-.1-.07,0-.13-.03-.19-.05-.13-.05-.26-.08-.39-.07-.18,0-.36,0-.53.01.02-.09.08-.16.13-.24,1.09-1.46,2.03-3.03,2.87-4.65.06-.12.13-.24.15-.38Z"/>
    <path class="cls-10" d="m349.5,12.43c0-.12.05-.22.15-.29.11-.07.21-.17.33-.24.14-.08.26-.18.37-.29.05-.05.1-.1.16-.12.17-.08.3-.2.42-.34.11-.12.23-.21.37-.29.08-.04.14-.11.21-.17.15-.14.28-.3.44-.42.14-.11.29-.21.44-.3.16-.09.3-.2.42-.34.02-.02.03-.03.05-.05.45-.46.4-.43.85-.65.16-.07.22-.22.23-.39.22.03.42.16.65.16.19.06.38.13.57.19.21.07.42.14.64.22.06.02.13.04.19.07.22.12.46.18.69.27.13.05.26.08.38.14.34.17.71.28,1.05.46.56.29,1.12.57,1.68.86.28.14.57.27.82.47.03.03.08.05.12.07.49.23.93.55,1.38.85.28.19.56.38.84.57.13.09.25.19.33.33-.04.05-.07.12-.13.16-.09.06-.2.11-.29.17-.08.05-.15.1-.22.16-.12.11-.23.22-.34.34-.12.14-.31.19-.44.32-.08.08-.16.17-.25.22-.23.12-.39.3-.57.48-.08.08-.16.17-.25.22-.18.1-.33.24-.47.38-.06.06-.13.14-.21.17-.18.09-.32.25-.5.34-.09-.01-.17-.06-.24-.11-1.29-.79-2.63-1.46-4.04-2-.07-.1-.16-.15-.28-.12-.04-.01-.08-.02-.11-.03-.03-.08-.09-.11-.17-.08-.1-.04-.21-.07-.31-.11-.41-.15-.83-.29-1.25-.4-.04-.08-.1-.1-.18-.07-.04-.01-.08-.02-.12-.03-.08-.1-.17-.14-.3-.09-.15-.04-.3-.09-.45-.12-.11-.03-.22-.04-.33-.07-.08-.1-.18-.12-.3-.08-.35-.08-.69-.17-1.04-.23-.05-.07-.11-.09-.18-.04-.16-.03-.33-.05-.49-.08-.05-.07-.11-.09-.19-.04-.04,0-.08-.02-.1-.06Z"/>
    <path class="cls-8" d="m337.61,54.9c-.44-.06-.89-.1-1.33-.18-.97-.17-1.93-.38-2.88-.65-3.12-.89-6.06-2.23-8.79-4.01-.09-.06-.19-.12-.29-.18-.07-.04-.13,0-.19.01-.02,0-.04.01-.06.02-.12-.25-.32-.43-.55-.59-.07-.05-.16-.09-.22-.15-.19-.2-.43-.33-.65-.48-.17-.12-.33-.23-.48-.38-.02-.02-.03-.03-.05-.05-.15-.17-.38-.24-.53-.41-.14-.15-.29-.28-.47-.39-.1-.06-.17-.14-.25-.22-.26-.25-.51-.51-.77-.77-.14-.14-.29-.28-.46-.39-.17-.11-.32-.26-.42-.43-.12-.2-.27-.36-.43-.52-.11-.11-.22-.23-.33-.35-.04-.05-.07-.11-.11-.17.25,0,.49,0,.74,0,.09,0,.18,0,.26.04.23.1.48.09.71.19.08.04.17.03.26.04.11,0,.22.03.33.07.08.03.17.05.26.06.16.01.31.03.46.09.02,0,.04.02.06.02.13.02.27.02.4.05.13.03.26.08.39.11.11.02.22.02.33.04.2.11.44.09.64.18.13.05.26.08.39.07.16,0,.31-.01.47-.02.11.05.17.14.25.23.51.58,1.04,1.14,1.59,1.69,1.9,1.9,3.99,3.56,6.29,4.91,1.13.67,2.3,1.24,3.52,1.7.48.18.97.35,1.47.48.15.04.3.09.45.13,0,.07-.01.14-.02.2Z"/>
    <path class="cls-13" d="m359.59,16.18c.18-.09.32-.25.5-.34.08-.04.14-.11.21-.17.14-.14.29-.28.47-.38.1-.05.17-.14.25-.22.18-.17.34-.36.57-.48.1-.05.17-.14.25-.22.13-.13.31-.18.44-.32.11-.12.22-.23.34-.34.07-.06.14-.11.22-.16.1-.06.2-.1.29-.17.05-.04.08-.1.13-.16.08.04.17.07.24.12.35.28.71.56,1.07.83.09.07.17.15.25.22.17.15.32.31.51.44.11.07.21.17.3.27.71.73,1.43,1.45,2.14,2.18.13.13.24.27.35.42.12.17.26.32.39.47.28.3.5.64.75.96.04.05.05.13.07.19-.2.02-.39.11-.55.23-.21.17-.46.27-.64.49-.03.03-.07.06-.11.08-.19.09-.33.23-.47.38-.09.1-.19.19-.29.28-.29.13-.47.41-.76.55-.1.05-.17.14-.25.22-.1.1-.23.13-.37.13-.07,0-.13,0-.2,0,0,0-.03,0-.03,0,0,0,0-.04,0-.04,0-.04-.03-.07-.07-.08-.27-.25-.49-.54-.72-.83-.01-.02-.02-.04-.03-.06-.01-.05-.04-.08-.08-.09h-.04s0-.05,0-.05c0-.04-.03-.06-.07-.07-.34-.31-.65-.66-.98-.99-.05-.05-.1-.09-.16-.11,0,0-.03-.03-.03-.03,0-.07-.04-.1-.11-.1v-.04s-.04,0-.04,0c0-.06-.03-.08-.08-.08-.04-.08-.11-.14-.17-.21-.59-.56-1.22-1.07-1.87-1.56-.49-.37-.98-.71-1.5-1.04-.06-.04-.11-.08-.14-.14Z"/>
    <path class="cls-14" d="m355.07,48.07c.18,0,.36-.01.53-.01.13,0,.26.02.39.07.06.03.13.05.19.05.18.01.35.03.52.1.16.07.35.05.52.13.08.04.17.04.26.05.09,0,.18,0,.27,0,.13,0,.26.02.39.07.1.04.22.06.32.1.17.08.34.11.52.1.16,0,.31.04.45.11.14.07.28.13.42.2-.03.16-.11.3-.19.44-.63,1.19-1.35,2.33-2.15,3.41-.35.48-.72.94-1.1,1.39-.04.05-.09.1-.16.11-.01-.14-.05-.27-.13-.38-.04-.05-.09-.11-.14-.14-.1-.05-.21-.08-.31-.11-.06-.02-.13-.04-.19-.04-.13-.01-.27-.02-.4-.02-.23-.1-.48-.11-.71-.19-.06-.02-.13-.04-.19-.05-.18-.03-.36.01-.53-.05-.15-.06-.3-.08-.45-.12-.22-.06-.42-.13-.65-.13-.23-.08-.48-.11-.71-.19-.23-.08-.48-.08-.71-.19-.11-.01-.22-.02-.33-.04.06-.1.15-.17.23-.25.55-.51,1.08-1.04,1.6-1.58.75-.77,1.45-1.58,2.1-2.43.11-.14.21-.3.36-.41Z"/>
    <path class="cls-9" d="m324.05,45.55c-.16,0-.31.01-.47.02-.14,0-.27-.02-.39-.07-.21-.09-.44-.07-.64-.18-.11-.01-.22-.01-.33-.04-.13-.03-.26-.08-.39-.11-.13-.03-.27-.03-.4-.05-.02,0-.04-.01-.06-.02-.14-.07-.3-.08-.46-.09-.09,0-.18-.03-.26-.06-.11-.04-.21-.06-.33-.07-.09,0-.19,0-.26-.04-.23-.11-.48-.09-.71-.19-.08-.04-.17-.04-.26-.04-.25,0-.49,0-.74,0-.15-.07-.26-.19-.34-.32-.12-.2-.26-.37-.42-.53-.14-.15-.26-.31-.38-.48-.16-.22-.32-.44-.49-.65-.19-.23-.34-.48-.51-.73-.17-.24-.32-.49-.49-.74-.25-.38-.46-.78-.7-1.17-.06-.1-.06-.22-.07-.33.16,0,.31-.03.47,0,.15.02.3.09.45.12.13.03.27,0,.39.06.15.06.3.09.45.09.16,0,.3.1.45.12.15.02.31.02.46.04.04,0,.09.02.13.04.12.05.25.08.39.08.11,0,.22.03.33.07.08.03.17.05.26.07.09.01.18,0,.26.03.23.09.48.09.71.19.23.1.43.06.63-.07.02-.01.04-.02.06-.03.1.06.15.17.2.27.31.53.64,1.04.98,1.55.06.09.12.19.22.25.02.12.09.21.16.3.55.78,1.12,1.54,1.73,2.27.1.12.2.24.3.37.03.03.04.08.06.12Z"/>
    <path class="cls-18" d="m363.25,33.82s0-.07,0-.11c.11-.02.22-.02.33-.05,1.42-.35,2.83-.71,4.25-1.07.05.02.09.03.14.05,0,.04,0,.07,0,.11-.06.03-.12.07-.18.09-.63.15-1.26.3-1.9.45-.63.15-1.26.32-1.89.47-.15.04-.31.06-.46.09-.11.02-.21.07-.31.12,0,0,0,0,0,0,0-.05,0-.11,0-.16Z"/>
    <path class="cls-13" d="m369.47,32.38c-.21.13-.43.2-.67.22-.13.01-.26.03-.39.04-.02-.02-.04-.05-.06-.07.01-.03.02-.06.02-.1.05,0,.1-.02.15-.03.11.04.2.01.28-.09.05,0,.1-.02.14-.03.08.02.17.02.25,0,.08-.01.17-.03.25-.04.02.03.03.06.04.09Z"/>
    <path class="cls-24" d="m433.5,18.64c-.13.1-.26.12-.4.02.02-.01.03-.03.05-.04.12-.03.24-.05.36.02Z"/>
    <path class="cls-4" d="m162.22,18.67s-.03.03-.05.03c-.12.02-.25.03-.35-.06.15-.08.28-.07.41.03Z"/>
    <path class="cls-28" d="m268.19,34.25c-.06-.09-.05-.18.02-.28.09.11.09.18-.02.28Z"/>
    <path class="cls-23" d="m170.29,31.9c.08.1.11.2.05.32-.09-.09-.11-.21-.05-.32Z"/>
    <path class="cls-4" d="m425.29,39.08c-.08-.09-.09-.18-.02-.28.09.09.1.18.02.28Z"/>
    <path class="cls-4" d="m186.63,33.97c.06.1.05.19-.03.28-.01-.02-.04-.03-.04-.05-.02-.09,0-.16.07-.23Z"/>
    <path class="cls-2" d="m255,34.64c.05.1.05.2-.02.3-.13-.12-.12-.19.02-.3Z"/>
    <path class="cls-23" d="m186.61,38.81c.09.09.1.18.03.28-.08-.09-.09-.18-.03-.28Z"/>
    <path class="cls-4" d="m207.12,54.41c.11-.06.18-.06.27.01-.11.07-.18.06-.27-.01Z"/>
    <path class="cls-24" d="m21.32,18.64c-.09.09-.16.09-.27.01.08-.07.16-.08.27-.01Z"/>
    <path class="cls-4" d="m87.66,54.41c.11-.06.18-.06.27.01-.11.07-.18.06-.27-.01Z"/>
    <path class="cls-23" d="m407.27,73.52c-.04-.06-.07-.12-.06-.18,0-.04.02-.09.05-.11.04-.03.08,0,.12.02.04.03.07.06.08.1,0,.04,0,.09,0,.13l-.2.04Z"/>
    <path class="cls-23" d="m199.85,40.19c-.09-.08-.1-.17-.03-.28.08.1.09.18.03.28Z"/>
    <path class="cls-24" d="m430.26,54.13c.11-.07.19-.07.27.02-.09.06-.18.05-.27-.02Z"/>
    <path class="cls-24" d="m203.75,53.98s.03-.04.05-.04c.09-.02.15,0,.22.08-.09.06-.18.05-.27-.04Z"/>
    <path class="cls-25" d="m341.8,73.47s-.04-.03-.05-.05c-.04-.07-.03-.14.03-.18.06-.04.13-.01.16.06.02.04.02.09.03.13-.06.01-.11.02-.17.03Z"/>
    <path class="cls-24" d="m456.55,18.65c-.1.08-.18.07-.27-.02.11-.06.19-.06.27.02Z"/>
    <path class="cls-28" d="m102.49,72.38s.03-.04.04-.04c.08-.01.16-.04.23.03-.1.1-.15.11-.27.01Z"/>
    <path class="cls-13" d="m367.98,32.75s0-.07,0-.11c.12-.03.24-.05.37-.08.02.02.04.05.06.07-.13.11-.28.11-.43.11Z"/>
    <path class="cls-4" d="m332.27,11.19c-.02.08-.05.15-.14.15,0-.1-.02-.19-.03-.29.08.02.12.08.17.13Z"/>
    <path class="cls-26" d="m170.73,54.27c.07.03.11.08.12.15-.12,0-.14-.02-.12-.15Z"/>
    <path class="cls-25" d="m360.48,73.63s-.03-.09,0-.12c0,0,.03-.01.04,0,.04.02.05.06.02.11l-.03.03-.04-.02Z"/>
    <path class="cls-19" d="m148.33,71.68c-.03.07-.09.11-.16.13q.01-.14.16-.13Z"/>
    <path class="cls-5" d="m307.3,54.43c.02-.07.06-.12.13-.15q.01.15-.13.15Z"/>
    <path class="cls-5" d="m307.42,50.13c-.06-.02-.11-.06-.13-.13.12-.01.14,0,.13.13Z"/>
    <path class="cls-19" d="m374.57,71.81c-.06-.02-.1-.06-.12-.13.11-.01.13,0,.12.13Z"/>
    <path class="cls-15" d="m444.9,32.05c-6.18,0-12.35,0-18.53,0-.22,0-.45,0-.67-.01-.06,0-.13-.08-.12-.14,0-.05,0-.09,0-.14.17-.79.37-1.56.65-2.32.39-1.08.91-2.1,1.61-3.01.54-.71,1.18-1.33,1.9-1.85.84-.61,1.77-.99,2.76-1.24.48-.12.97-.16,1.46-.24.09-.01.18-.01.27-.01.13,0,.27,0,.4,0,6.83,0,13.65,0,20.48,0,1.09,0,2.15.19,3.17.57,1.47.54,2.69,1.46,3.64,2.74.52.7.94,1.46,1.28,2.26.33.78.59,1.59.78,2.42.06.27.15.53.16.81,0,.06-.05.14-.11.15-.02,0-.04.01-.06.01-.07,0-.13,0-.2,0-.2,0-.4,0-.61,0-6.09,0-12.17,0-18.26,0Z"/>
    <path class="cls-23" d="m437.15,73.33c-.06-.02-.11-.04-.17-.06.05-.1.09-.14.12-.11.03.03.04.07.05.1,0,.02,0,.04,0,.06Z"/>
    <path class="cls-24" d="m206.55,73.36c-.08,0-.16-.06-.24-.03,0-.04,0-.09,0-.13,0-.05.03-.08.07-.1.05-.02.14.01.16.07,0,.02.02.04.02.06,0,.04,0,.08-.01.13Z"/>
    <path class="cls-15" d="m207.83,23.18c.42-.07.85-.1,1.27-.1,6.83,0,13.65,0,20.48,0,1.11,0,2.67.33,3.6.75,1.15.52,2.13,1.26,2.94,2.25.54.66.97,1.38,1.33,2.15.4.85.7,1.74.93,2.66.08.33.18.67.21,1.01,0,.05-.06.13-.12.13-.07,0-.13.01-.2.01-.18,0-.36,0-.54,0-12.28,0-24.57,0-36.85,0-.25,0-.49,0-.74-.01-.06,0-.13-.08-.12-.14.26-1.48.73-2.89,1.45-4.21.37-.69.82-1.32,1.34-1.89.89-.97,1.93-1.72,3.16-2.16.49-.18.98-.31,1.5-.4.13.07.24.04.35-.05Z"/>
    <path class="cls-4" d="m207.83,23.18c-.11.08-.22.11-.35.05.11-.09.23-.11.35-.05Z"/>
    <path class="cls-5" d="m327.67,36.32c.04.25.08.5.11.75.24,1.64.68,3.23,1.3,4.76.02.04.04.08.06.12.03.06.07.12.13.15.15.09.31.19.46.28,1.3.73,2.68,1.28,4.12,1.66.72.19,1.44.36,2.17.45.22.03.44.1.66.1.06.08.14.07.22.06.02,0,.03-.03.05-.04,1.07.14,2.14.15,3.22.12.54-.02,1.07-.08,1.6-.18.73-.13,1.45-.29,2.16-.49,2.45-.67,4.7-1.75,6.76-3.27.09-.07.17-.15.29-.17,0,.16-.02.32.02.48.01.05.03.09.07.12.12.1.26.18.42.19.16.01.32-.02.47.04.21.09.43.1.66.11.04,0,.09,0,.13.02.22.12.48.09.71.2.06.03.13.05.19.04.34-.03.65.14.99.17.19.09.38.12.59.12.23.08.48.12.71.19.13.04.26.08.39.08.18,0,.36.01.52.1.24.03.47.13.71.17.13.02.26.07.39.11.08.02.18.02.26.03-.02.14-.08.26-.15.38-.84,1.62-1.77,3.19-2.87,4.65-.05.07-.11.14-.13.24-.14.12-.25.27-.36.41-.65.85-1.35,1.66-2.1,2.43-.52.54-1.05,1.07-1.6,1.58-.08.08-.17.15-.23.25-.06.03-.13.05-.17.1-.49.44-1,.83-1.52,1.23-.34.26-.69.51-1.04.74-.04.02-.08.03-.13.04-.28-.16-.56-.28-.86-.38-.15-.05-.31-.04-.46-.1-.15-.06-.3-.1-.46-.1-.11,0-.22-.04-.33-.08-.06-.02-.13-.04-.2-.05-.22-.02-.45.03-.67-.07-.21-.1-.44-.07-.65-.17-.08-.04-.17-.04-.26-.05-.11,0-.22-.02-.33-.07-.1-.05-.21-.07-.33-.07-.14,0-.27-.03-.39-.08-.06-.03-.13-.04-.19-.05-.11-.02-.22-.02-.33-.04-.2-.12-.44-.09-.65-.18-.13-.06-.26-.07-.4-.07-.16,0-.31-.02-.46-.09-.19-.08-.4-.05-.58-.15-.04-.02-.09-.02-.13-.03-.2-.02-.41.01-.6-.08-.18-.09-.39-.07-.59-.15-.21-.08-.44-.09-.65-.18-.33-.02-.59-.2-.87-.35-.04-.02-.08-.05-.11-.08-.13-.13-.27-.24-.43-.33-.06-.03-.11-.09-.16-.13-.09-.07-.17-.16-.26-.21-.18-.09-.32-.25-.51-.33-.19-.08-.35-.2-.52-.32-.15-.1-.3-.2-.43-.33-.7-.72-1.4-1.43-2.1-2.15-.11-.11-.21-.23-.29-.38-.05-.1-.13-.18-.21-.27-.12-.13-.25-.26-.33-.43-.05-.1-.14-.18-.21-.27-.12-.13-.25-.27-.33-.43-.05-.1-.13-.19-.21-.26-.24-.21-.42-.48-.59-.75-.17-.27-.35-.53-.5-.82-.1-.2-.23-.4-.36-.58-.15-.2-.32-.38-.56-.48-.1-.04-.2-.1-.3-.15-.1-.05-.21-.08-.32-.08-.2,0-.4-.03-.59-.1-.16-.06-.35-.06-.52-.13-.08-.03-.18-.03-.26-.04-.11,0-.22-.02-.33-.07-.21-.09-.45-.06-.65-.18-.04-.02-.09-.02-.13-.02-.18-.02-.36.02-.53-.06-.15-.07-.31-.05-.46-.11-.21-.08-.43-.11-.66-.11-.04,0-.09,0-.13-.02-.21-.1-.44-.09-.65-.17-.13-.05-.26-.08-.39-.08-.07,0-.14,0-.2-.03-.41-.17-.84-.1-1.26-.08-.07,0-.12.05-.17.1-.03.03-.05.08-.08.11-.1-.06-.16-.16-.22-.25-.34-.51-.67-1.02-.98-1.55-.06-.1-.11-.2-.2-.27-.02-.06-.03-.13-.06-.19-.16-.3-.33-.59-.49-.89-.51-.96-.97-1.94-1.38-2.95-.08-.21-.17-.42-.25-.63.02-.12-.01-.22-.12-.29-.01-.04-.02-.07-.03-.11.03-.12-.01-.22-.11-.3-.36-1.04-.68-2.1-.94-3.17-.01-.04-.02-.09-.02-.13.02-.2.02-.39-.12-.54-.02-.11-.04-.21-.06-.32-.02-.13-.05-.26-.07-.39.04-.22,0-.43-.04-.65-.01-.06-.06-.11-.1-.17,0,0,0,0,0,0,.05-.22.01-.44-.03-.66-.01-.06-.06-.12-.09-.17,0,0,0-.01,0-.01.04-.13,0-.27.03-.41.16,0,.31,0,.47,0,.07,0,.14,0,.2.03.21.1.43.1.66.11.07,0,.13.02.2.04.11.03.22.06.32.11.21.09.43.13.66.12.18-.01.36.03.52.11.08.04.18.04.26.08.15.07.3.09.46.09.16,0,.31.03.46.09.06.03.13.04.2.04.11,0,.22,0,.34,0,.11,0,.22.02.33.06.15.06.3.1.45.15.11.04.22.06.33.06.09,0,.18,0,.27,0,.11,0,.22.02.33.07.1.04.22.06.32.11.17.08.34.11.52.1.14,0,.27.02.39.08.1.04.22.06.32.11.15.06.3.1.46.09.16,0,.31.02.46.08.19.08.4.05.59.15.06.03.13.04.2.03.28-.03.53.07.78.17.24.09.47.13.72.12.02,0,.04,0,.07,0,0,.07.02.14,0,.2-.11.65-.15,1.32-.2,1.97-.06.84-.06,1.69.02,2.53.02.23.03.45.04.68-.09.11-.08.18.03.28Z"/>
    <path class="cls-6" d="m359.59,16.18c.03.07.08.11.14.14.51.33,1.01.67,1.5,1.04.65.49,1.28,1,1.87,1.56.07.06.13.12.17.21.02.04.04.06.08.08h.04s0,.03,0,.03c.02.05.06.08.11.1,0,0,.03.03.03.03,0,.05,0,.09,0,.14,0,.34-.12.38-.42.38-.09,0-.19,0-.27-.03-.19-.08-.4-.08-.58-.15-.17-.06-.34-.1-.53-.1-.14,0-.27-.03-.39-.08-.12-.05-.26-.08-.38-.13-.11-.04-.22-.06-.33-.06-.11,0-.22,0-.34,0-.07,0-.14-.01-.2-.04-.17-.07-.34-.1-.53-.09-.11,0-.22-.02-.33-.06-.15-.06-.3-.1-.45-.16-.11-.04-.22-.06-.33-.06-.09,0-.18,0-.27,0-.11,0-.22-.02-.33-.07-.06-.03-.13-.04-.19-.07-.25-.1-.51-.16-.79-.14-.14,0-.27-.02-.39-.07-.1-.04-.22-.06-.32-.11-.15-.06-.3-.1-.46-.09-.16,0-.31-.02-.46-.09-.12-.05-.26-.08-.38-.13-.11-.04-.22-.06-.33-.06-.18,0-.35-.03-.53-.09-.19-.07-.4-.06-.58-.16-.11,0-.22-.02-.33-.03-.14,0-.27-.03-.39-.08-.08-.03-.18-.06-.26-.05-.37.03-.71-.08-1.05-.21-.13-.05-.26-.08-.39-.07-.18,0-.35-.03-.52-.11-.1-.05-.21-.07-.32-.11-.11-.04-.22-.06-.33-.06-.09,0-.18,0-.27,0-.11,0-.22-.02-.33-.07-.04-.02-.08-.03-.13-.05-.3-.11-.6-.19-.92-.17-.09,0-.18-.02-.26-.05-.13-.04-.26-.07-.38-.13-.15-.06-.3-.1-.46-.1-.16,0-.31-.02-.46-.08-.13-.06-.26-.05-.4-.05-.14,0-.27-.03-.39-.08-.1-.04-.22-.06-.32-.11-.15-.06-.3-.1-.46-.09-.07,0-.13,0-.2,0-.11,0-.22-.02-.33-.06-.15-.06-.3-.1-.45-.16-.11-.04-.22-.06-.33-.06-.18,0-.35-.03-.53-.09-.19-.07-.4-.06-.58-.16-.04-.02-.09-.02-.13-.02-.3.03-.58-.08-.85-.17-.19-.07-.38-.12-.59-.11-.21.01-.4-.03-.59-.11-.04-.02-.09-.02-.13-.04-.23-.1-.47-.14-.72-.13-.04,0-.09,0-.13,0-.07-.01-.13-.02-.2-.05-.15-.06-.3-.09-.46-.08-.16,0-.31-.02-.46-.09-.04-.02-.09-.02-.13-.04-.25-.1-.51-.16-.79-.14-.14,0-.27-.02-.39-.08-.08-.03-.17-.05-.26-.08-.19-.08-.38-.13-.59-.12-.14,0-.27-.03-.39-.09-.12-.07-.24-.13-.36-.19-.08-.05-.12-.13-.14-.22,0-.02,0-.05-.01-.07.04-.03.07-.07.11-.08,1.07-.34,2.15-.64,3.24-.88.63-.14,1.27-.25,1.91-.35.55-.09,1.11-.17,1.67-.2.09,0,.18,0,.27-.02.51-.08,1.03-.09,1.54-.1.78-.02,1.56-.02,2.35.01.38.02.76.03,1.14.08.15.02.31.03.47.04.06.08.14.07.22.06.02,0,.03-.03.04-.04.32.04.64.09.96.13.08.01.17,0,.26,0,.02.04.06.06.1.06.05.07.11.08.19.04.16.03.33.05.49.08.05.07.11.09.18.04.35.06.7.14,1.04.23.08.12.18.12.3.08.11.02.22.04.33.07.15.04.3.08.45.12.07.11.18.13.3.09.04,0,.08.02.12.03.04.07.1.1.18.07.43.11.84.26,1.25.4.1.04.21.07.31.11.03.08.09.1.17.08.04.01.08.02.11.03.07.11.16.15.28.12,1.41.54,2.75,1.22,4.04,2,.08.05.15.09.24.11Z"/>
    <path class="cls-5" d="m355.29,35.64c-.03-.09-.07-.17-.09-.26-.48-1.98-1.31-3.8-2.38-5.52-.92-1.48-2.01-2.82-3.24-4.03-.23-.22-.46-.43-.7-.65-.05-.05-.1-.09-.12-.16.16,0,.31-.02.47-.02.07,0,.13.02.2.04.1.04.21.09.31.14.1.05.21.08.32.08.13,0,.27.02.39.07.06.03.13.04.19.05.2.03.41-.01.6.08.18.09.4.06.58.15.06.03.13.04.19.05.18,0,.35.03.52.11.08.03.18.03.26.04.11,0,.22.03.33.07.08.03.17.06.26.06.16.01.31.03.46.09.06.03.13.04.2.04.18,0,.35.04.52.11.08.03.18.03.26.04.11,0,.22.03.33.07.1.05.22.06.33.07.11,0,.22.02.33.07.1.05.21.07.33.07.14,0,.27.03.39.08.17.08.36.03.53.09.15.05.29.11.46.11.11,0,.22.03.33.07.08.03.17.06.26.06.21,0,.39.08.59.14.24.06.39.21.5.42.03.06.06.12.08.19.01.04.02.09.01.13-.08.28-.17.57-.26.85-.07.22-.15.43-.22.65-.02.06-.03.13-.06.2-.07.17-.16.33-.21.51-.05.18-.14.34-.21.51-.09.21-.14.44-.25.64-.11.2-.2.41-.3.62-.09.18-.17.37-.23.57-.04.13-.1.26-.18.37-.15.2-.26.43-.37.65-.08.16-.15.33-.25.49-.13.22-.27.42-.39.64-.12.22-.26.42-.4.64-.07.12-.14.23-.22.34-.05.08-.13.13-.21.16-.09,0-.17,0-.26,0Z"/>
    <path class="cls-5" d="m368.93,32.32s-.1.02-.14.03c-.11-.05-.21-.02-.28.09-.05,0-.1.02-.15.03-.19-.03-.38-.04-.53.13-1.42.36-2.83.71-4.25,1.07-.11.03-.22.03-.33.05,0,0,.01-.03.01-.03,0-.31,0-.62-.02-.94,0-.16-.01-.31-.02-.47,0-.09-.05-.17-.1-.24-.02-.39-.04-.78-.11-1.16-.02-.11-.02-.23-.03-.34.04-.22,0-.45-.03-.66-.01-.06-.06-.11-.1-.17,0-.09-.01-.18-.02-.27.04-.13.03-.27,0-.4-.01-.06-.06-.11-.1-.17-.06-.32-.12-.63-.18-.95.04-.18-.01-.35-.05-.52.18-.04.36-.04.54-.04.09,0,.18.01.26.04.17.07.34.1.53.09.14,0,.26.03.39.08.12.05.26.08.38.13.11.04.21.06.33.06.11,0,.22,0,.34,0,.07,0,.14.01.2.04.17.07.34.1.52.1.14,0,.26.03.39.08.21.08.44.08.65.17.04.02.09.02.13.02.32-.03.61.1.91.2.13.04.26.08.39.08.21-.01.4.03.58.14.06.03.12.06.18.08.07.03.18-.03.2-.12.01-.04.02-.09.03-.13.05.04.09.1.12.16.14.38.28.77.41,1.16.19.58.35,1.17.5,1.77.02.09.02.18.03.27,0,.05-.06.14-.11.16-.06.02-.12.06-.19.07-.26.06-.52.12-.78.19-.1-.03-.21,0-.31,0-.09.01-.16.06-.21.13Z"/>
    <path class="cls-5" d="m321.18,23.12c.09-.1.18-.2.27-.3,1.03-1.27,2.19-2.4,3.45-3.43.05-.04.12-.06.18-.09.01.04.02.09.03.13.01.05.03.09.07.11.26.14.46.19.7.2.07,0,.13,0,.2,0,.11,0,.22.02.33.06.13.05.26.08.38.13.15.06.3.09.46.09.16,0,.31.02.46.09.04.02.09.02.13.04.25.1.51.16.79.14.14,0,.27.02.39.08.06.03.13.04.19.06.23.09.47.16.72.14.04,0,.09.01.13.02.07.01.14.15.11.22-.02.04-.03.09-.06.12-.09.06-.19.13-.29.16-.15.05-.3.1-.44.18-.3.17-.62.27-.93.39-.11.04-.22.06-.32.12-.2.11-.41.17-.63.25-.21.08-.42.16-.63.25-.31.13-.63.25-.92.41-.28.15-.56.29-.84.43-.18.09-.36.19-.56.24-.15.04-.3.11-.42.21-.14.12-.3.2-.46.29-.22.11-.44.22-.64.38-.08.07-.19.11-.29.17-.22.12-.45.21-.64.38-.07.06-.15.09-.23.13-.16.08-.31.18-.46.29-.15.1-.3.19-.43.32-.06.06-.14.11-.22.16-.06.04-.12.07-.17.11-.2.22-.48.34-.7.53-.2.08-.32.24-.42.43-.02.04-.06.06-.1.09-.04.03-.09.03-.13,0-.04-.02-.06-.07-.05-.11.03-.13.06-.27.11-.4.05-.15.1-.3.12-.46.03-.18.1-.35.24-.48.09.05.12.05.14-.02,0-.04.01-.08.02-.12,0,0,0,0,0,0,.16-.14.19-.2.26-.44.16-.26.33-.51.49-.77.03-.05.05-.12.07-.18,0-.02.02-.03.03-.05.01-.03,0-.06-.04-.09,0,0,0,0,0,0,.04.03.09.04.11.01.15-.19.29-.38.44-.57,0-.01,0-.04,0-.06Z"/>
    <path class="cls-3" d="m362.98,30.53c0,.11,0,.23.03.34.08.38.09.78.11,1.16-.03.11-.03.22-.02.33,0,.31,0,.62.01.93-.11,0-.22,0-.33,0-.16,0-.31,0-.47,0-.16,0-.3-.09-.45-.12-.04,0-.09,0-.13,0-.07,0-.13.02-.18.07-.06.06-.12.13-.18.2-.02-.16.02-.31.04-.47.03-.16.06-.31.08-.47.03-.38.14-.76.14-1.14.05-.07.1-.15.1-.25.01-.29.03-.59.04-.88,0-.04-.01-.09-.02-.13,0,0,.02,0,.02,0,.07-.05.11-.11.12-.19.31.06.62.05.93.02.02.12.04.25.06.38.01.09.05.16.11.22Z"/>
    <path class="cls-2" d="m362.82,29.93c-.31.03-.62.04-.93-.02,0-.43,0-.86.01-1.3,0-.2,0-.41,0-.61,0-.09-.04-.17-.1-.24-.02-.36-.04-.72-.06-1.08.05-.13.03-.27.02-.41,0-.07-.04-.13-.09-.18-.05-.51-.15-1.02-.26-1.53-.03-.13-.05-.27-.07-.4.06,0,.11,0,.17,0,.28.76.53,1.53.72,2.32-.04.12,0,.22.09.3.02.08.03.17.05.25-.04.12-.01.22.08.3,0,0,0,0,0,0-.04.13-.01.26.02.39.02.06.07.11.1.16.06.32.12.63.18.95-.04.2-.04.4.1.57,0,.09.01.18.02.27-.04.08-.03.16-.03.24Z"/>
    <path class="cls-16" d="m316.23,26.38c-.04-.52-.05-1.04-.04-1.56,0-.32-.01-.63.04-.95,0,0,.04,0,.04,0h.04c.05.27.03.54.02.81-.01.56,0,1.13.04,1.69h-.06s-.05,0-.08,0Z"/>
    <path class="cls-4" d="m361.79,27.76c.06.07.1.15.1.24,0,.2,0,.41,0,.61,0,.43,0,.86-.01,1.3-.02.08-.05.15-.12.19,0-.07-.02-.13-.02-.2,0-.65.01-1.3.02-1.95,0-.07.02-.13.03-.2Z"/>
    <path class="cls-28" d="m320.65,23.9c-.02.06-.04.12-.07.18-.16.26-.33.51-.49.77-.04,0-.08,0-.13.02,0-.05.01-.09.03-.13.11-.25.2-.51.34-.75.02-.04.06-.07.09-.1.08,0,.16.01.23.02Z"/>
    <path class="cls-2" d="m321.18,23.12s.01.05,0,.06c-.14.19-.29.38-.44.57-.02.03-.07.02-.11-.01-.05-.04-.12-.06-.08-.14.11-.28.26-.55.43-.8.01-.02.03-.03.05-.04.03.13.08.24.14.36Z"/>
    <path class="cls-16" d="m361.5,24.17c-.06,0-.11,0-.17,0-.03-.03-.08-.06-.09-.09-.06-.19-.17-.37-.12-.59,0-.02.02-.05.04-.05.01,0,.04,0,.05.01.02.01.04.02.05.04.12.17.2.35.24.55,0,.04,0,.09,0,.13Z"/>
    <path class="cls-5" d="m328.01,29.31s0,.04,0,.06c-.03.21-.05.42-.14.61-.13-.05-.21-.14-.21-.29,0-.06,0-.13,0-.19.01-.11.09-.19.21-.2.04,0,.08,0,.13,0Z"/>
    <path class="cls-24" d="m316.5,28.45c-.02.13.01.27-.03.41-.06-.06-.08-.14-.1-.22-.01-.06-.03-.12-.04-.18.02-.22-.01-.43-.02-.65,0-.11,0-.22.02-.32.05.07.09.15.1.24.02.24.05.48.07.73Z"/>
    <path class="cls-5" d="m316.36,26.38c.09,0,.17.03.25.1.11.1.11.26,0,.36-.07.06-.16.09-.25.1-.05-.18-.03-.37-.05-.55h.06Z"/>
    <path class="cls-16" d="m361.75,30.1s.02.09.02.13c-.01.29-.02.59-.04.88,0,.09-.05.17-.1.25-.03-.36,0-.72.03-1.08,0-.06.06-.12.09-.18Z"/>
    <path class="cls-16" d="m316.34,22.79s-.03-.09-.02-.13c0-.31.03-.62.08-.93.01-.06.05-.12.08-.18,0,.04.02.09.02.13-.01.29-.03.58-.05.87,0,.09-.05.17-.11.24Z"/>
    <path class="cls-4" d="m316.3,23.88h-.04s-.04,0-.04,0c-.05-.32-.02-.64.03-.96,0-.04.04-.08.06-.12.02.09.03.18.03.27-.01.27-.03.54-.04.81Z"/>
    <path class="cls-4" d="m316.3,26.38c.02.18,0,.37.05.55,0,.11,0,.23-.01.34,0,.07-.02.14-.02.2-.02-.04-.06-.07-.06-.11-.05-.33-.08-.65-.03-.98.03,0,.05,0,.08,0Z"/>
    <path class="cls-23" d="m316.47,21.39c-.05-.23,0-.45.05-.68.01-.04.05-.08.07-.11.03.11.01.23,0,.34,0,.14-.02.27-.02.41-.03.02-.07.03-.1.04Z"/>
    <path class="cls-23" d="m316.6,20.56c-.04-.17,0-.33.03-.5.01-.06.06-.11.09-.16.04.19,0,.37-.05.56-.01.04-.05.07-.07.1Z"/>
    <path class="cls-23" d="m355.29,35.64c.09,0,.17,0,.26,0,.01.14-.03.26-.12.36-.03.03-.07.04-.11.06.03-.15-.02-.28-.03-.42Z"/>
    <path class="cls-24" d="m317.01,18.63c-.03-.19,0-.37.13-.51.03.1,0,.21-.01.31-.02.09-.06.15-.12.21Z"/>
    <path class="cls-24" d="m362.56,27.91c-.03-.05-.08-.1-.1-.16-.03-.13-.06-.26-.02-.39.03,0,.05,0,.07.03.04.17.09.34.05.52Z"/>
    <path class="cls-24" d="m361.66,26.09c.04.05.08.11.09.18.02.14.03.27-.02.41-.04-.05-.08-.11-.08-.18-.01-.14-.03-.27.01-.4Z"/>
    <path class="cls-16" d="m319.96,24.86s.08-.02.13-.02c-.07.24-.1.3-.26.44,0-.07-.01-.14,0-.21,0-.1.05-.17.14-.21Z"/>
    <path class="cls-2" d="m338.31,20.58c-.12.12-.19.11-.29-.03.1-.05.2-.03.29.03Z"/>
    <path class="cls-24" d="m317.15,18.09c-.03-.15,0-.29.12-.39.03.15.01.29-.12.39Z"/>
    <path class="cls-16" d="m319.84,25.27s0,.08-.02.12c-.02.07-.04.08-.14.02.04-.06.07-.13.15-.14Z"/>
    <path class="cls-24" d="m362.3,26.79c-.09-.08-.13-.18-.09-.3.1.08.12.18.09.3Z"/>
    <path class="cls-24" d="m362.43,27.35c-.09-.08-.12-.18-.08-.3.1.08.11.19.08.3Z"/>
    <path class="cls-5" d="m316.47,21.39s.07-.02.1-.04c0,.08-.02.15-.08.2,0-.05-.01-.11-.02-.16Z"/>
    <path class="cls-5" d="m369.32,28.04c.06.02.08.06.07.13-.05-.03-.07-.07-.07-.13Z"/>
    <path class="cls-2" d="m320.65,23.9c-.08,0-.16-.01-.23-.02,0-.02.02-.04.03-.06q.07-.12.19-.07s.05.06.04.09c0,.02-.02.04-.03.05Z"/>
    <path class="cls-5" d="m316.76,19.89c-.01-.07,0-.14.02-.14.04.03.05.06.03.1-.01.02-.03.02-.05.04Z"/>
    <path class="cls-18" d="m365.61,21.56s.06.04.07.08c0,0-.06-.02-.06-.02v-.06Z"/>
    <path class="cls-18" d="m364.66,20.46s.06.03.07.07c0,0-.06-.01-.06-.01v-.06Z"/>
    <path class="cls-18" d="m364.78,20.58s.07.05.08.09c-.06,0-.09-.03-.08-.09Z"/>
    <path class="cls-16" d="m335.48,59.38c-.06.03-.12.07-.18.08-.13.02-.27.03-.4.03-.8.02-1.61.02-2.41,0-.11,0-.22-.01-.33-.03-.06-.01-.12-.05-.18-.08,1.17,0,2.34,0,3.5,0Z"/>
    <path class="cls-21" d="m338.69,54.84c.16,0,.31-.02.47-.01.33,0,.33,0,.71.15.02,0,.03.03.04.05.02.04,0,.07-.07.07-.29,0-.58,0-.87.01-.11,0-.22-.02-.32-.07.03-.06.06-.12.05-.2Z"/>
    <path class="cls-28" d="m338.69,54.84c.01.07-.02.13-.05.2-.28-.06-.57-.05-.85-.08-.06,0-.12-.04-.18-.06,0-.07.01-.14.02-.2.13-.03.25,0,.38.03.23.06.45.12.69.12Z"/>
    <path class="cls-16" d="m331.98,59.38c-.38.03-.75,0-1.13-.03-.09,0-.17-.05-.24-.11.38,0,.76.02,1.13.03.09,0,.17.05.24.11Z"/>
    <path class="cls-16" d="m336.82,59.24c-.07.06-.15.1-.24.11-.37.02-.74.06-1.12.03.07-.06.14-.11.23-.11.37-.01.75-.02,1.12-.03Z"/>
    <path class="cls-16" d="m337.58,59.23c-.11,0-.21,0-.32,0-.15,0-.3,0-.45,0,.07-.06.14-.11.23-.11.2,0,.39-.01.59-.02-.02.04-.03.08-.05.12Z"/>
    <path class="cls-16" d="m329.7,59.1c-.17.02-.33,0-.49-.02-.08-.01-.15-.06-.22-.11.14,0,.29,0,.43.01.11,0,.2.05.28.12Z"/>
    <path class="cls-16" d="m338.45,58.96c-.08.08-.18.12-.3.13-.13,0-.26,0-.4.01.06-.07.14-.12.23-.12.15,0,.31-.01.46-.02Z"/>
    <path class="cls-16" d="m328.34,58.83c-.09,0-.18,0-.27,0-.11,0-.22-.05-.3-.13.11,0,.22,0,.33.01.09,0,.17.06.23.12Z"/>
    <path class="cls-16" d="m340.19,58.55c-.08.09-.18.13-.29.13-.09,0-.18,0-.26,0,.08-.08.18-.13.29-.13.09,0,.18,0,.26-.01Z"/>
    <path class="cls-16" d="m328.88,58.96c-.09,0-.18,0-.26,0-.11,0-.21-.04-.3-.13.09,0,.18,0,.26,0,.11,0,.21.04.3.12Z"/>
    <path class="cls-16" d="m340.6,58.41s-.02.07-.02.11c-.13,0-.26.02-.39.03.05-.08.13-.12.22-.13.06,0,.13,0,.2,0Z"/>
    <path class="cls-16" d="m326.33,58.28c-.06,0-.12,0-.18,0-.1-.01-.19-.05-.26-.14.04,0,.08,0,.12,0,.12,0,.23.04.32.14Z"/>
    <path class="cls-16" d="m325.91,58.14c-.16,0-.31,0-.43-.14.04,0,.09,0,.13,0,.12,0,.22.04.29.14Z"/>
    <path class="cls-22" d="m337.58,59.23s.03-.08.05-.12c.04,0,.09,0,.13.02-.04.07-.1.1-.18.1Z"/>
    <path class="cls-23" d="m348.28,12.3s-.03.04-.04.04c-.08,0-.16.02-.22-.06.11-.08.18-.07.27.02Z"/>
    <path class="cls-24" d="m316.47,28.86c.03.06.08.11.09.17.04.22.08.43.03.66-.02-.04-.05-.07-.06-.11-.06-.23-.11-.47-.06-.71Z"/>
    <path class="cls-24" d="m316.59,29.7c.03.06.08.11.1.17.04.21.09.43.04.65-.02-.04-.05-.07-.07-.11-.07-.2-.09-.43-.07-.7Z"/>
    <path class="cls-23" d="m316.87,31.22c.14.16.14.35.12.54-.06-.06-.1-.13-.12-.22-.02-.11-.04-.21,0-.32Z"/>
    <path class="cls-23" d="m317.96,35.07c.1.07.14.17.11.3-.1-.07-.14-.17-.11-.3Z"/>
    <path class="cls-23" d="m318.1,35.48c.1.07.14.17.12.29-.1-.07-.14-.17-.12-.29Z"/>
    <path class="cls-24" d="m368.93,32.32c.05-.07.12-.11.21-.13.1-.02.21-.04.31,0,0,.03-.01.07-.02.1-.08.01-.17.03-.25.04-.08.01-.17.02-.25,0Z"/>
    <path class="cls-16" d="m363.12,33.3c0-.31,0-.62-.01-.93,0-.11,0-.22.02-.33.06.07.1.15.1.24,0,.16.02.31.02.47,0,.31.01.62.02.94-.09-.03-.12-.1-.13-.19,0-.06-.01-.13-.02-.19Z"/>
    <path class="cls-2" d="m363.25,33.82c0,.05,0,.11,0,.16-.07-.04-.08-.07-.03-.12.01-.01.03-.02.04-.03Z"/>
    <path class="cls-16" d="m351.81,12.97c-.12.04-.22.04-.3-.08.12-.04.22-.02.3.08Z"/>
    <path class="cls-24" d="m352.88,13.25c-.12.04-.22.02-.3-.09.12-.04.22,0,.3.09Z"/>
    <path class="cls-24" d="m355.3,14.07c-.12.04-.21,0-.28-.12.12-.03.21.01.28.12Z"/>
    <path class="cls-24" d="m354.91,13.92c-.08.03-.14,0-.17-.08.08-.03.14,0,.17.08Z"/>
    <path class="cls-24" d="m353.17,13.34c-.08.04-.13,0-.18-.07.08-.03.14-.01.18.07Z"/>
    <path class="cls-23" d="m350.46,12.66c-.08.05-.14.03-.18-.04.08-.05.14-.03.18.04Z"/>
    <path class="cls-23" d="m349.78,12.54c-.07.04-.14.03-.19-.04.08-.05.14-.03.19.04Z"/>
    <path class="cls-17" d="m363.34,19.2s-.06-.04-.08-.08c.05,0,.08.02.08.08Z"/>
    <path class="cls-17" d="m363.49,19.34c-.05-.02-.09-.05-.11-.1.07,0,.11.03.11.1Z"/>
    <path class="cls-24" d="m367.84,32.59c.15-.16.34-.15.53-.13,0,.03,0,.07-.02.1-.12.03-.24.05-.37.08-.05-.02-.09-.03-.14-.05Z"/>
    <path class="cls-24" d="m368.51,32.44c.07-.11.16-.13.28-.09-.07.1-.17.12-.28.09Z"/>
    <path class="cls-24" d="m327.67,36.32c-.11-.09-.12-.16-.03-.28.08.1.09.19.03.28Z"/>
    <path class="cls-4" d="m336.96,44.62s-.03.04-.05.04c-.08,0-.16.02-.22-.06.11-.07.18-.06.27.02Z"/>
    <path class="cls-24" d="m362.82,29.93c0-.08,0-.16.03-.24.03.06.09.11.1.17.04.22.07.44.03.66-.06-.06-.09-.14-.11-.22-.02-.13-.04-.25-.06-.38Z"/>
    <path class="cls-16" d="m362.83,29.42c-.14-.17-.14-.36-.1-.57.03.06.08.11.1.17.03.13.04.27,0,.4Z"/>
    <text class="cls-30" transform="translate(260.89 99.61)"><tspan x="0" y="0">Part of the</tspan></text>
    <text class="cls-30" transform="translate(427.46 99.26)"><tspan x="0" y="0">group</tspan></text>
    <g>
      <path class="cls-7" d="m421.79,99.68c0,.98-.91,1.77-2.04,1.77s-2.04-.79-2.04-1.77.91-1.77,2.04-1.77,2.04.79,2.04,1.77h0Z"/>
      <path class="cls-7" d="m366.94,101.46v-5.45c0-.47-.02-1.18-.65-1.71-.38-.32-1-.53-1.57-.53s-1.17.2-1.53.48c-.77.58-.75,1.4-.75,2.01v5.2h-3.31v-5.25c0-1.17.06-2.38,1.44-3.59,1.07-.95,2.41-1.38,4.21-1.38,2.01,0,3.44.6,4.23,1.33,1.11,1.05,1.24,2.46,1.24,3.64v5.25h-3.31Z"/>
      <polygon class="cls-7" points="402.83 91.37 406.38 91.37 406.38 101.45 402.83 101.45 402.83 91.37 402.83 91.37"/>
      <path class="cls-7" d="m406.62,89.15c0,.97-.9,1.76-2.02,1.76s-2.02-.79-2.02-1.76.9-1.76,2.02-1.76,2.02.79,2.02,1.76h0Z"/>
      <path class="cls-7" d="m377.98,98.83c1.46,0,2.69-1.05,2.69-2.44s-1.23-2.53-2.82-2.53-2.86,1.14-2.86,2.49,1.25,2.47,2.99,2.47h0Zm2.67,1.5c-1.01.86-2.05,1.18-3.42,1.18s-2.61-.39-3.62-1.18c-1.34-1.03-2.02-2.38-2.02-3.95,0-1.44.65-2.74,1.85-3.75,1.08-.92,2.39-1.39,3.86-1.39s2.48.41,3.25,1.27v-4.75h3.4v13.68h-3.3v-1.12h0Z"/>
      <path class="cls-7" d="m410.73,98.36v.09c0,.54.5.93,1.21.93s1.13-.31,1.13-.85c0-.8-.9-.76-2.29-1.14-1.94-.53-2.88-1.43-2.88-2.9,0-1.9,1.61-3.25,4.27-3.25,2.31,0,3.8,1.14,3.92,2.99h-2.98c-.13-.63-.4-.91-.98-.91-.65,0-1.02.33-1.02.8,0,.67.69.83,1.84,1.11,2.29.54,3.44,1.31,3.44,2.92,0,1.96-1.77,3.37-4.48,3.37-2.5,0-4.05-1.18-4.28-3.16h3.11Z"/>
      <polygon class="cls-7" points="401.99 91.38 396.88 101.81 393.26 95.27 389.94 101.81 384.78 91.38 388.31 91.38 390.4 95.54 391.99 92.5 391.39 91.38 394.47 91.38 396.6 95.72 398.46 91.38 401.99 91.38 401.99 91.38"/>
      <path class="cls-7" d="m351.64,98.83c1.47,0,2.7-1.05,2.7-2.44s-1.23-2.53-2.83-2.53-2.87,1.14-2.87,2.49,1.25,2.48,3,2.48h0Zm2.67,1.5c-1.01.86-2.05,1.18-3.43,1.18s-2.61-.39-3.62-1.18c-1.34-1.03-2.03-2.38-2.03-3.96,0-1.44.65-2.74,1.85-3.75,1.08-.92,2.39-1.39,3.86-1.39s2.48.41,3.26,1.28v-1.13h3.41v10.07h-3.3v-1.13h0Z"/>
    </g>
  </g>
</svg>