<?xml version="1.0" encoding="UTF-8"?>
<svg id="Layer_2" data-name="Layer 2" xmlns="http://www.w3.org/2000/svg" xmlns:xlink="http://www.w3.org/1999/xlink" viewBox="0 0 643.17 104.86">
  <defs>
    <style>
      .cls-1 {
        fill: url(#linear-gradient);
      }

      .cls-1, .cls-2, .cls-3, .cls-4, .cls-5, .cls-6, .cls-7, .cls-8, .cls-9, .cls-10 {
        stroke-width: 0px;
      }

      .cls-2 {
        fill: url(#linear-gradient-6);
      }

      .cls-3 {
        fill: url(#linear-gradient-5);
      }

      .cls-4 {
        fill: #3c3b3d;
      }

      .cls-5 {
        fill: url(#linear-gradient-2);
      }

      .cls-6 {
        fill: url(#linear-gradient-7);
      }

      .cls-7 {
        fill: url(#linear-gradient-3);
      }

      .cls-8 {
        fill: #1e1e1c;
      }

      .cls-9 {
        fill: url(#linear-gradient-4);
      }

      .cls-10 {
        fill: #adadad;
      }
    </style>
    <linearGradient id="linear-gradient" x1="450.74" y1="15.85" x2="479.75" y2="32.6" gradientUnits="userSpaceOnUse">
      <stop offset="0" stop-color="#3d3d3b"/>
      <stop offset="1" stop-color="#000100"/>
    </linearGradient>
    <linearGradient id="linear-gradient-2" x1="2890.89" y1="1600.61" x2="2919.89" y2="1617.36" gradientTransform="translate(3646.32 -906.23) rotate(134.22)" xlink:href="#linear-gradient"/>
    <linearGradient id="linear-gradient-3" x1="2853.17" y1="-1078.97" x2="2929.6" y2="-1078.97" gradientTransform="translate(2490.27 2344.37) rotate(-111.26)" gradientUnits="userSpaceOnUse">
      <stop offset="0" stop-color="#f2f9fc"/>
      <stop offset="1" stop-color="#1d9fce"/>
    </linearGradient>
    <linearGradient id="linear-gradient-4" x1="2871.08" y1="-1082.93" x2="2900.08" y2="-1066.18" gradientTransform="translate(2490.27 2344.37) rotate(-111.26)" xlink:href="#linear-gradient"/>
    <linearGradient id="linear-gradient-5" x1="429" y1="26.47" x2="505.43" y2="26.47" gradientUnits="userSpaceOnUse">
      <stop offset="0" stop-color="#fff"/>
      <stop offset="1" stop-color="#edca6f"/>
    </linearGradient>
    <linearGradient id="linear-gradient-6" x1="2872.99" y1="1604.58" x2="2949.42" y2="1604.58" gradientTransform="translate(3646.32 -906.23) rotate(134.22)" gradientUnits="userSpaceOnUse">
      <stop offset="0" stop-color="#dd5244"/>
      <stop offset="1" stop-color="#c01c20"/>
    </linearGradient>
    <linearGradient id="linear-gradient-7" x1="446.38" y1="23.41" x2="475.38" y2="40.16" xlink:href="#linear-gradient"/>
  </defs>
  <g id="Layer_1-2" data-name="Layer 1">
    <g>
      <path class="cls-4" d="m173.75,92.44h6.58v1.1h-5.22v4.02h4.31v1.1h-4.31v4.88h5.22v1.1h-6.58v-12.18Z"/>
      <path class="cls-4" d="m186.23,92.44h1.36v11.09h5.54v1.1h-6.9v-12.18Z"/>
      <path class="cls-4" d="m198.64,92.44h6.58v1.1h-5.22v4.02h4.31v1.1h-4.31v4.88h5.22v1.1h-6.58v-12.18Z"/>
      <path class="cls-4" d="m217.68,102.8c-.79,1.15-1.96,1.99-3.5,1.99-3.52,0-4.05-3.84-4.05-6.25s.53-6.27,4.05-6.27c1.54,0,2.59.8,3.3,1.97l-1.15.62c-.42-.77-1.11-1.44-2.14-1.44-2.47,0-2.63,3.51-2.63,5.12s.16,5.1,2.63,5.1c1.05,0,1.88-.79,2.39-1.54l1.11.7Z"/>
      <path class="cls-4" d="m225.74,93.53h-2.91v-1.1h7.12v1.1h-2.85v11.09h-1.36v-11.09Z"/>
      <path class="cls-4" d="m235.85,92.44h3.64c1.33,0,3.01,1.04,3.01,3.23,0,1.5-.67,2.92-2.33,3.44l2.79,5.22-1.21.53-3.03-5.66h-1.52v5.43h-1.36v-12.18Zm1.36,5.66h1.98c1.17,0,1.9-.79,1.9-2.43s-.85-2.14-2.23-2.14h-1.66v4.57Z"/>
      <path class="cls-4" d="m250.45,93.53h-1.82v-1.1h5.02v1.1h-1.84v9.99h1.84v1.1h-5.02v-1.1h1.82v-9.99Z"/>
      <path class="cls-4" d="m266.62,102.8c-.79,1.15-1.96,1.99-3.5,1.99-3.52,0-4.05-3.84-4.05-6.25s.53-6.27,4.05-6.27c1.54,0,2.59.8,3.3,1.97l-1.15.62c-.42-.77-1.11-1.44-2.14-1.44-2.47,0-2.63,3.51-2.63,5.12s.16,5.1,2.63,5.1c1.05,0,1.88-.79,2.39-1.54l1.11.7Z"/>
      <path class="cls-4" d="m273.9,100.86l-1.05,4-1.34-.33,3.42-12.09h1.62l3.42,12.09-1.34.33-1.05-4h-3.68Zm1.86-6.79h-.04l-1.5,5.7h3.04l-1.5-5.7Z"/>
      <path class="cls-4" d="m285.61,92.44h1.36v11.09h5.54v1.1h-6.9v-12.18Z"/>
      <path class="cls-10" d="m310.29,92.44h3.64c1.33,0,3.01,1.04,3.01,3.23,0,1.5-.67,2.92-2.33,3.44l2.79,5.22-1.21.53-3.03-5.66h-1.52v5.43h-1.36v-12.18Zm1.36,5.66h1.98c1.17,0,1.9-.79,1.9-2.43s-.85-2.14-2.23-2.14h-1.66v4.57Z"/>
      <path class="cls-10" d="m322.89,92.44h6.58v1.1h-5.22v4.02h4.31v1.1h-4.31v4.88h5.22v1.1h-6.58v-12.18Z"/>
      <path class="cls-10" d="m335.45,92.44h6.64v1.1h-5.28v4.02h4.43v1.1h-4.43v5.97h-1.36v-12.18Z"/>
      <path class="cls-10" d="m347.7,92.44h3.64c1.33,0,3.01,1.04,3.01,3.23,0,1.5-.67,2.92-2.33,3.44l2.79,5.22-1.21.53-3.03-5.66h-1.52v5.43h-1.36v-12.18Zm1.36,5.66h1.98c1.17,0,1.9-.79,1.9-2.43s-.85-2.14-2.23-2.14h-1.66v4.57Z"/>
      <path class="cls-10" d="m362.31,93.53h-1.82v-1.1h5.02v1.1h-1.84v9.99h1.84v1.1h-5.02v-1.1h1.82v-9.99Z"/>
      <path class="cls-10" d="m378.2,103.73c-.87.64-2,1.06-3.14,1.06-3.48,0-4.09-3.8-4.09-6.23,0-2.28.59-6.28,3.95-6.28,1.52,0,2.63.84,3.38,1.96l-1.19.66c-.49-.79-1.19-1.46-2.27-1.46-2.25,0-2.45,3.73-2.45,5.17,0,4.18,1.36,5.04,2.69,5.04.57,0,1.29-.22,1.76-.57v-3.67h-2.53v-1.1h3.88v5.43Z"/>
      <path class="cls-10" d="m384.35,92.44h6.58v1.1h-5.22v4.02h4.31v1.1h-4.31v4.88h5.22v1.1h-6.58v-12.18Z"/>
      <path class="cls-10" d="m396.77,92.44h3.64c1.33,0,3.01,1.04,3.01,3.23,0,1.5-.67,2.92-2.33,3.44l2.79,5.22-1.21.53-3.03-5.66h-1.52v5.43h-1.36v-12.18Zm1.36,5.66h1.98c1.17,0,1.9-.79,1.9-2.43s-.85-2.14-2.23-2.14h-1.66v4.57Z"/>
      <path class="cls-10" d="m411.1,100.86l-1.05,4-1.34-.33,3.42-12.09h1.62l3.42,12.09-1.34.33-1.05-4h-3.68Zm1.86-6.79h-.04l-1.5,5.7h3.04l-1.5-5.7Z"/>
      <path class="cls-10" d="m423.8,93.53h-2.91v-1.1h7.12v1.1h-2.85v11.09h-1.36v-11.09Z"/>
      <path class="cls-10" d="m435.87,93.53h-1.82v-1.1h5.02v1.1h-1.84v9.99h1.84v1.1h-5.02v-1.1h1.82v-9.99Z"/>
      <path class="cls-10" d="m452.09,98.52c0,1.54.06,6.27-3.74,6.27s-3.74-4.69-3.74-6.27c0-2.01.14-6.25,3.74-6.25,3.8,0,3.74,4.64,3.74,6.25Zm-6.07,0c0,3.29.42,5.12,2.33,5.12,2.35,0,2.33-3,2.33-5.12,0-2.3.06-5.1-2.33-5.1s-2.33,3.31-2.33,5.1Z"/>
      <path class="cls-10" d="m457.83,92.44h1.7l4.01,10.25.04-.04-.06-2.72v-7.49h1.36v12.18h-1.7l-4.01-10.27-.04.04.06,2.76v7.47h-1.36v-12.18Z"/>
      <path class="cls-4" d="m489.89,92.44h1.7l.4,12.18h-1.44l-.26-10.16h-.04l-2.31,6.12-2.31-6.12h-.04l-.26,10.16h-1.42l.4-12.18h1.68l1.94,5.17,1.94-5.17Z"/>
      <path class="cls-4" d="m497.98,92.44h6.58v1.1h-5.22v4.02h4.31v1.1h-4.31v4.88h5.22v1.1h-6.58v-12.18Z"/>
      <path class="cls-4" d="m517.01,102.8c-.79,1.15-1.96,1.99-3.5,1.99-3.52,0-4.05-3.84-4.05-6.25s.53-6.27,4.05-6.27c1.54,0,2.59.8,3.3,1.97l-1.15.62c-.42-.77-1.11-1.44-2.14-1.44-2.47,0-2.63,3.51-2.63,5.12s.16,5.1,2.63,5.1c1.05,0,1.88-.79,2.39-1.54l1.11.7Z"/>
      <path class="cls-4" d="m522.49,92.44h1.36v5.12h4.17v-5.12h1.36v12.18h-1.36v-5.97h-4.17v5.97h-1.36v-12.18Z"/>
      <path class="cls-4" d="m537.02,100.86l-1.05,4-1.34-.33,3.42-12.09h1.62l3.42,12.09-1.34.33-1.05-4h-3.68Zm1.86-6.79h-.04l-1.5,5.7h3.04l-1.5-5.7Z"/>
      <path class="cls-4" d="m548.32,92.44h1.7l4.01,10.25.04-.04-.06-2.72v-7.49h1.36v12.18h-1.7l-4.01-10.27-.04.04.06,2.76v7.47h-1.36v-12.18Z"/>
      <path class="cls-4" d="m563.24,93.53h-1.82v-1.1h5.02v1.1h-1.84v9.99h1.84v1.1h-5.02v-1.1h1.82v-9.99Z"/>
      <path class="cls-4" d="m579.41,102.8c-.79,1.15-1.96,1.99-3.5,1.99-3.52,0-4.05-3.84-4.05-6.25s.53-6.27,4.05-6.27c1.54,0,2.59.8,3.3,1.97l-1.15.62c-.42-.77-1.11-1.44-2.14-1.44-2.47,0-2.63,3.51-2.63,5.12s.16,5.1,2.63,5.1c1.05,0,1.88-.79,2.39-1.54l1.11.7Z"/>
      <path class="cls-4" d="m586.69,100.86l-1.05,4-1.34-.33,3.42-12.09h1.62l3.42,12.09-1.34.33-1.05-4h-3.68Zm1.86-6.79h-.04l-1.5,5.7h3.04l-1.5-5.7Z"/>
      <path class="cls-4" d="m598.4,92.44h1.36v11.09h5.54v1.1h-6.9v-12.18Z"/>
      <path class="cls-8" d="m18.5,43.3c0-9.91,7.12-13.55,9.62-13.55h36.62v-6.4H28.12c-6.25,0-16,2.51-20.62,6.77-4.62,4.27-7.5,10.79-7.5,13.8v5.65h69.62c0,9.91-7.12,14.43-9.62,14.43H23.37v6.4h36.62c6.25,0,16-3.39,20.62-7.65,4.62-4.27,7.5-8.15,7.5-13.8v-5.65H18.5Z"/>
      <path class="cls-8" d="m134,87.6h-14.62v5.87h21c21.75,0,26.25-15.75,26.25-22.87s-.12-47.25-.12-47.25h-17.87v40.88h-28.75c-6.87,0-12-6.5-12-12.25v-28.62h-17.37v26.88c0,8.12,5.5,12.62,10.62,15.62s17.62,4.62,25.12,4.62h22.25c0,9.38-.37,17.12-14.5,17.12Z"/>
      <path class="cls-8" d="m171,23.35c0,7.12.12,47.12.12,47.12h17.87V29.6h28.75c6.87,0,12,6.5,12,12.25v28.55h17.37v-26.8c0-8.12-5.5-12.62-10.62-15.62s-15.67-4.62-25.12-4.62h-40.37Z"/>
      <path class="cls-8" d="m328.54,28.23c-5.12-3-15.67-4.62-25.12-4.62-2.31,0-5.13.03-8.12.06-2.99-.04-5.81-.06-8.12-.06-9.46,0-20,1.62-25.12,4.62s-10.62,7.87-10.62,18.62c0,13.75,5.5,16.13,10.62,19.13s13.42,4.42,25.12,4.42h11.08v-6.05h-17.46c-6.87,0-12-6.5-12-12.25v-4.92h70.37c0-.11,0-.22,0-.33,0-10.75-5.5-15.62-10.62-18.62Zm-45.87,1.62h27.12c6.49,0,10.85,5.8,11.37,11.29h-52.32c.53-5.49,4.24-11.29,13.82-11.29Z"/>
      <path class="cls-8" d="m632.54,28.23c-5.12-3-15.67-4.62-25.12-4.62-2.31,0-5.13.03-8.12.06-2.99-.04-5.81-.06-8.12-.06-9.46,0-20,1.62-25.12,4.62s-10.62,7.87-10.62,18.62c0,13.75,5.5,16.13,10.62,19.13s13.42,4.42,25.12,4.42h11.08v-6.05h-17.46c-6.87,0-12-6.5-12-12.25v-4.92h70.37c0-.11,0-.22,0-.33,0-10.75-5.5-15.62-10.62-18.62Zm-45.87,1.62h27.12c6.49,0,10.85,5.8,11.37,11.29h-52.32c.53-5.49,4.24-11.29,13.82-11.29Z"/>
      <path class="cls-8" d="m361.34,40.98c.53-5.52,5.45-11.34,11.95-11.34h40.33v-6.23c-.21,0-.41,0-.62,0-2.99-.04-33.37-.06-35.69-.06-9.46,0-17.65,1.63-22.77,4.65-5.12,3.02-11.19,7.92-11.19,18.72,0,13.82,6.28,16.47,11.4,19.49s11.04,4.19,22.75,4.19h36.33v-6.08h-40.54c-6.87,0-11.32-6.38-11.92-11.5-.13-1.13-.25-2.26-.25-6.09,0-4.34.22-5.75.22-5.75Z"/>
      <path class="cls-8" d="m525.13,70.4c0-20.32,0-23.39,0-23.67,0-4.34.22-5.75.22-5.75.53-5.52,5.45-11.34,11.95-11.34h22.21v-6.23c-.21,0-.41,0-.62,0-2.99-.04-15.25-.06-17.56-.06-9.46,0-17.65,1.63-22.77,4.65-5.12,3.02-11.19,7.92-11.19,18.72,0,.27,0,3.35.01,23.67h17.77Z"/>
      <g>
        <path class="cls-1" d="m470.04,15.78l-6.14,14.6c7.08,3.23,12.81,8.93,16.07,16l19.26-4.19c-3.99-13.44-15.23-23.75-29.19-26.41Z"/>
        <path class="cls-5" d="m442.88,56.45l-10.43,16.73c14.46,7.59,32.75,5.17,44.72-7.13,10.06-10.34,13.02-24.93,8.98-37.79-.55,7.34-3.58,14.53-9.12,20.22-9.14,9.39-22.57,12.07-34.16,7.97Z"/>
        <g>
          <path class="cls-7" d="m427.22,48.93c-6.22-16-.83-33.64,12.08-43.65l-3.5-5.29c-14.48,10.55-20.66,29.88-13.86,47.37,6.09,15.65,20.83,25.36,36.62,25.79-.23-.12-.46-.24-.69-.37-13.37-1.66-25.42-10.42-30.65-23.86Z"/>
          <path class="cls-9" d="m450.19,21.72l-10.89-16.43c-12.91,10-18.3,27.65-12.08,43.65,5.23,13.44,17.28,22.2,30.65,23.86-6.45-3.55-11.73-9.29-14.61-16.68-4.75-12.21-1.62-25.54,6.92-34.39Z"/>
        </g>
        <path class="cls-3" d="m462.93,15.1c17.16,0,31.65,11.42,36.3,27.08l6.2-1.35c-4.58-17.32-20.36-30.09-39.12-30.09-16.79,0-31.19,10.22-37.31,24.78.2-.17.39-.34.59-.51,6.4-11.86,18.93-19.92,33.35-19.92Z"/>
        <path class="cls-2" d="m477.17,66.06c-11.97,12.3-30.26,14.72-44.72,7.13l-3.35,5.38c15.61,8.8,35.76,6.39,48.84-7.05,11.71-12.03,14.43-29.48,8.26-44.02-.01.26-.03.52-.05.78,4.04,12.86,1.07,27.46-8.98,37.79Z"/>
        <path class="cls-6" d="m462.93,15.1c-14.42,0-26.95,8.06-33.35,19.92,5.64-4.72,12.91-7.57,20.85-7.57,4.81,0,9.36,1.05,13.47,2.92l6.14-14.6c-2.3-.44-4.68-.67-7.11-.67Z"/>
      </g>
    </g>
  </g>
</svg>